<?xml version="1.0" encoding="utf-8" standalone="no"?>
<!DOCTYPE svg PUBLIC "-//W3C//DTD SVG 1.1//EN"
  "http://www.w3.org/Graphics/SVG/1.1/DTD/svg11.dtd">
<svg xmlns:xlink="http://www.w3.org/1999/xlink" width="712.46125pt" height="279.835469pt" viewBox="0 0 712.46125 279.835469" xmlns="http://www.w3.org/2000/svg" version="1.1">
 <metadata>
  <rdf:RDF xmlns:dc="http://purl.org/dc/elements/1.1/" xmlns:cc="http://creativecommons.org/ns#" xmlns:rdf="http://www.w3.org/1999/02/22-rdf-syntax-ns#">
   <cc:Work>
    <dc:type rdf:resource="http://purl.org/dc/dcmitype/StillImage"/>
    <dc:date>2025-06-09T11:18:39.282593</dc:date>
    <dc:format>image/svg+xml</dc:format>
    <dc:creator>
     <cc:Agent>
      <dc:title>Matplotlib v3.9.4, https://matplotlib.org/</dc:title>
     </cc:Agent>
    </dc:creator>
   </cc:Work>
  </rdf:RDF>
 </metadata>
 <defs>
  <style type="text/css">*{stroke-linejoin: round; stroke-linecap: butt}</style>
 </defs>
 <g id="figure_1">
  <g id="patch_1">
   <path d="M 0 279.835469 
L 712.46125 279.835469 
L 712.46125 0 
L 0 0 
z
" style="fill: #ffffff"/>
  </g>
  <g id="axes_1">
   <g id="patch_2">
    <path d="M 43.78125 242.279219 
L 347.46625 242.279219 
L 347.46625 10.999219 
L 43.78125 10.999219 
z
" style="fill: #ffffff"/>
   </g>
   <g id="PolyCollection_1"/>
   <g id="PolyCollection_2"/>
   <g id="PolyCollection_3"/>
   <g id="matplotlib.axis_1">
    <g id="xtick_1">
     <g id="line2d_1">
      <defs>
       <path id="m2e3ab8dd8c" d="M 0 0 
L 0 3.5 
" style="stroke: #000000; stroke-width: 0.8"/>
      </defs>
      <g>
       <use xlink:href="#m2e3ab8dd8c" x="57.585114" y="242.279219" style="stroke: #000000; stroke-width: 0.8"/>
      </g>
     </g>
     <g id="text_1">
      <!-- 0 -->
      <g transform="translate(54.403864 256.877656) scale(0.1 -0.1)">
       <defs>
        <path id="DejaVuSans-30" d="M 2034 4250 
Q 1547 4250 1301 3770 
Q 1056 3291 1056 2328 
Q 1056 1369 1301 889 
Q 1547 409 2034 409 
Q 2525 409 2770 889 
Q 3016 1369 3016 2328 
Q 3016 3291 2770 3770 
Q 2525 4250 2034 4250 
z
M 2034 4750 
Q 2819 4750 3233 4129 
Q 3647 3509 3647 2328 
Q 3647 1150 3233 529 
Q 2819 -91 2034 -91 
Q 1250 -91 836 529 
Q 422 1150 422 2328 
Q 422 3509 836 4129 
Q 1250 4750 2034 4750 
z
" transform="scale(0.015625)"/>
       </defs>
       <use xlink:href="#DejaVuSans-30"/>
      </g>
     </g>
    </g>
    <g id="xtick_2">
     <g id="line2d_2">
      <g>
       <use xlink:href="#m2e3ab8dd8c" x="101.828266" y="242.279219" style="stroke: #000000; stroke-width: 0.8"/>
      </g>
     </g>
     <g id="text_2">
      <!-- 1000 -->
      <g transform="translate(89.103266 256.877656) scale(0.1 -0.1)">
       <defs>
        <path id="DejaVuSans-31" d="M 794 531 
L 1825 531 
L 1825 4091 
L 703 3866 
L 703 4441 
L 1819 4666 
L 2450 4666 
L 2450 531 
L 3481 531 
L 3481 0 
L 794 0 
L 794 531 
z
" transform="scale(0.015625)"/>
       </defs>
       <use xlink:href="#DejaVuSans-31"/>
       <use xlink:href="#DejaVuSans-30" x="63.623047"/>
       <use xlink:href="#DejaVuSans-30" x="127.246094"/>
       <use xlink:href="#DejaVuSans-30" x="190.869141"/>
      </g>
     </g>
    </g>
    <g id="xtick_3">
     <g id="line2d_3">
      <g>
       <use xlink:href="#m2e3ab8dd8c" x="146.071419" y="242.279219" style="stroke: #000000; stroke-width: 0.8"/>
      </g>
     </g>
     <g id="text_3">
      <!-- 2000 -->
      <g transform="translate(133.346419 256.877656) scale(0.1 -0.1)">
       <defs>
        <path id="DejaVuSans-32" d="M 1228 531 
L 3431 531 
L 3431 0 
L 469 0 
L 469 531 
Q 828 903 1448 1529 
Q 2069 2156 2228 2338 
Q 2531 2678 2651 2914 
Q 2772 3150 2772 3378 
Q 2772 3750 2511 3984 
Q 2250 4219 1831 4219 
Q 1534 4219 1204 4116 
Q 875 4013 500 3803 
L 500 4441 
Q 881 4594 1212 4672 
Q 1544 4750 1819 4750 
Q 2544 4750 2975 4387 
Q 3406 4025 3406 3419 
Q 3406 3131 3298 2873 
Q 3191 2616 2906 2266 
Q 2828 2175 2409 1742 
Q 1991 1309 1228 531 
z
" transform="scale(0.015625)"/>
       </defs>
       <use xlink:href="#DejaVuSans-32"/>
       <use xlink:href="#DejaVuSans-30" x="63.623047"/>
       <use xlink:href="#DejaVuSans-30" x="127.246094"/>
       <use xlink:href="#DejaVuSans-30" x="190.869141"/>
      </g>
     </g>
    </g>
    <g id="xtick_4">
     <g id="line2d_4">
      <g>
       <use xlink:href="#m2e3ab8dd8c" x="190.314572" y="242.279219" style="stroke: #000000; stroke-width: 0.8"/>
      </g>
     </g>
     <g id="text_4">
      <!-- 3000 -->
      <g transform="translate(177.589572 256.877656) scale(0.1 -0.1)">
       <defs>
        <path id="DejaVuSans-33" d="M 2597 2516 
Q 3050 2419 3304 2112 
Q 3559 1806 3559 1356 
Q 3559 666 3084 287 
Q 2609 -91 1734 -91 
Q 1441 -91 1130 -33 
Q 819 25 488 141 
L 488 750 
Q 750 597 1062 519 
Q 1375 441 1716 441 
Q 2309 441 2620 675 
Q 2931 909 2931 1356 
Q 2931 1769 2642 2001 
Q 2353 2234 1838 2234 
L 1294 2234 
L 1294 2753 
L 1863 2753 
Q 2328 2753 2575 2939 
Q 2822 3125 2822 3475 
Q 2822 3834 2567 4026 
Q 2313 4219 1838 4219 
Q 1578 4219 1281 4162 
Q 984 4106 628 3988 
L 628 4550 
Q 988 4650 1302 4700 
Q 1616 4750 1894 4750 
Q 2613 4750 3031 4423 
Q 3450 4097 3450 3541 
Q 3450 3153 3228 2886 
Q 3006 2619 2597 2516 
z
" transform="scale(0.015625)"/>
       </defs>
       <use xlink:href="#DejaVuSans-33"/>
       <use xlink:href="#DejaVuSans-30" x="63.623047"/>
       <use xlink:href="#DejaVuSans-30" x="127.246094"/>
       <use xlink:href="#DejaVuSans-30" x="190.869141"/>
      </g>
     </g>
    </g>
    <g id="xtick_5">
     <g id="line2d_5">
      <g>
       <use xlink:href="#m2e3ab8dd8c" x="234.557724" y="242.279219" style="stroke: #000000; stroke-width: 0.8"/>
      </g>
     </g>
     <g id="text_5">
      <!-- 4000 -->
      <g transform="translate(221.832724 256.877656) scale(0.1 -0.1)">
       <defs>
        <path id="DejaVuSans-34" d="M 2419 4116 
L 825 1625 
L 2419 1625 
L 2419 4116 
z
M 2253 4666 
L 3047 4666 
L 3047 1625 
L 3713 1625 
L 3713 1100 
L 3047 1100 
L 3047 0 
L 2419 0 
L 2419 1100 
L 313 1100 
L 313 1709 
L 2253 4666 
z
" transform="scale(0.015625)"/>
       </defs>
       <use xlink:href="#DejaVuSans-34"/>
       <use xlink:href="#DejaVuSans-30" x="63.623047"/>
       <use xlink:href="#DejaVuSans-30" x="127.246094"/>
       <use xlink:href="#DejaVuSans-30" x="190.869141"/>
      </g>
     </g>
    </g>
    <g id="xtick_6">
     <g id="line2d_6">
      <g>
       <use xlink:href="#m2e3ab8dd8c" x="278.800877" y="242.279219" style="stroke: #000000; stroke-width: 0.8"/>
      </g>
     </g>
     <g id="text_6">
      <!-- 5000 -->
      <g transform="translate(266.075877 256.877656) scale(0.1 -0.1)">
       <defs>
        <path id="DejaVuSans-35" d="M 691 4666 
L 3169 4666 
L 3169 4134 
L 1269 4134 
L 1269 2991 
Q 1406 3038 1543 3061 
Q 1681 3084 1819 3084 
Q 2600 3084 3056 2656 
Q 3513 2228 3513 1497 
Q 3513 744 3044 326 
Q 2575 -91 1722 -91 
Q 1428 -91 1123 -41 
Q 819 9 494 109 
L 494 744 
Q 775 591 1075 516 
Q 1375 441 1709 441 
Q 2250 441 2565 725 
Q 2881 1009 2881 1497 
Q 2881 1984 2565 2268 
Q 2250 2553 1709 2553 
Q 1456 2553 1204 2497 
Q 953 2441 691 2322 
L 691 4666 
z
" transform="scale(0.015625)"/>
       </defs>
       <use xlink:href="#DejaVuSans-35"/>
       <use xlink:href="#DejaVuSans-30" x="63.623047"/>
       <use xlink:href="#DejaVuSans-30" x="127.246094"/>
       <use xlink:href="#DejaVuSans-30" x="190.869141"/>
      </g>
     </g>
    </g>
    <g id="xtick_7">
     <g id="line2d_7">
      <g>
       <use xlink:href="#m2e3ab8dd8c" x="323.04403" y="242.279219" style="stroke: #000000; stroke-width: 0.8"/>
      </g>
     </g>
     <g id="text_7">
      <!-- 6000 -->
      <g transform="translate(310.31903 256.877656) scale(0.1 -0.1)">
       <defs>
        <path id="DejaVuSans-36" d="M 2113 2584 
Q 1688 2584 1439 2293 
Q 1191 2003 1191 1497 
Q 1191 994 1439 701 
Q 1688 409 2113 409 
Q 2538 409 2786 701 
Q 3034 994 3034 1497 
Q 3034 2003 2786 2293 
Q 2538 2584 2113 2584 
z
M 3366 4563 
L 3366 3988 
Q 3128 4100 2886 4159 
Q 2644 4219 2406 4219 
Q 1781 4219 1451 3797 
Q 1122 3375 1075 2522 
Q 1259 2794 1537 2939 
Q 1816 3084 2150 3084 
Q 2853 3084 3261 2657 
Q 3669 2231 3669 1497 
Q 3669 778 3244 343 
Q 2819 -91 2113 -91 
Q 1303 -91 875 529 
Q 447 1150 447 2328 
Q 447 3434 972 4092 
Q 1497 4750 2381 4750 
Q 2619 4750 2861 4703 
Q 3103 4656 3366 4563 
z
" transform="scale(0.015625)"/>
       </defs>
       <use xlink:href="#DejaVuSans-36"/>
       <use xlink:href="#DejaVuSans-30" x="63.623047"/>
       <use xlink:href="#DejaVuSans-30" x="127.246094"/>
       <use xlink:href="#DejaVuSans-30" x="190.869141"/>
      </g>
     </g>
    </g>
    <g id="text_8">
     <!-- iterations -->
     <g transform="translate(171.896406 270.555781) scale(0.1 -0.1)">
      <defs>
       <path id="DejaVuSans-69" d="M 603 3500 
L 1178 3500 
L 1178 0 
L 603 0 
L 603 3500 
z
M 603 4863 
L 1178 4863 
L 1178 4134 
L 603 4134 
L 603 4863 
z
" transform="scale(0.015625)"/>
       <path id="DejaVuSans-74" d="M 1172 4494 
L 1172 3500 
L 2356 3500 
L 2356 3053 
L 1172 3053 
L 1172 1153 
Q 1172 725 1289 603 
Q 1406 481 1766 481 
L 2356 481 
L 2356 0 
L 1766 0 
Q 1100 0 847 248 
Q 594 497 594 1153 
L 594 3053 
L 172 3053 
L 172 3500 
L 594 3500 
L 594 4494 
L 1172 4494 
z
" transform="scale(0.015625)"/>
       <path id="DejaVuSans-65" d="M 3597 1894 
L 3597 1613 
L 953 1613 
Q 991 1019 1311 708 
Q 1631 397 2203 397 
Q 2534 397 2845 478 
Q 3156 559 3463 722 
L 3463 178 
Q 3153 47 2828 -22 
Q 2503 -91 2169 -91 
Q 1331 -91 842 396 
Q 353 884 353 1716 
Q 353 2575 817 3079 
Q 1281 3584 2069 3584 
Q 2775 3584 3186 3129 
Q 3597 2675 3597 1894 
z
M 3022 2063 
Q 3016 2534 2758 2815 
Q 2500 3097 2075 3097 
Q 1594 3097 1305 2825 
Q 1016 2553 972 2059 
L 3022 2063 
z
" transform="scale(0.015625)"/>
       <path id="DejaVuSans-72" d="M 2631 2963 
Q 2534 3019 2420 3045 
Q 2306 3072 2169 3072 
Q 1681 3072 1420 2755 
Q 1159 2438 1159 1844 
L 1159 0 
L 581 0 
L 581 3500 
L 1159 3500 
L 1159 2956 
Q 1341 3275 1631 3429 
Q 1922 3584 2338 3584 
Q 2397 3584 2469 3576 
Q 2541 3569 2628 3553 
L 2631 2963 
z
" transform="scale(0.015625)"/>
       <path id="DejaVuSans-61" d="M 2194 1759 
Q 1497 1759 1228 1600 
Q 959 1441 959 1056 
Q 959 750 1161 570 
Q 1363 391 1709 391 
Q 2188 391 2477 730 
Q 2766 1069 2766 1631 
L 2766 1759 
L 2194 1759 
z
M 3341 1997 
L 3341 0 
L 2766 0 
L 2766 531 
Q 2569 213 2275 61 
Q 1981 -91 1556 -91 
Q 1019 -91 701 211 
Q 384 513 384 1019 
Q 384 1609 779 1909 
Q 1175 2209 1959 2209 
L 2766 2209 
L 2766 2266 
Q 2766 2663 2505 2880 
Q 2244 3097 1772 3097 
Q 1472 3097 1187 3025 
Q 903 2953 641 2809 
L 641 3341 
Q 956 3463 1253 3523 
Q 1550 3584 1831 3584 
Q 2591 3584 2966 3190 
Q 3341 2797 3341 1997 
z
" transform="scale(0.015625)"/>
       <path id="DejaVuSans-6f" d="M 1959 3097 
Q 1497 3097 1228 2736 
Q 959 2375 959 1747 
Q 959 1119 1226 758 
Q 1494 397 1959 397 
Q 2419 397 2687 759 
Q 2956 1122 2956 1747 
Q 2956 2369 2687 2733 
Q 2419 3097 1959 3097 
z
M 1959 3584 
Q 2709 3584 3137 3096 
Q 3566 2609 3566 1747 
Q 3566 888 3137 398 
Q 2709 -91 1959 -91 
Q 1206 -91 779 398 
Q 353 888 353 1747 
Q 353 2609 779 3096 
Q 1206 3584 1959 3584 
z
" transform="scale(0.015625)"/>
       <path id="DejaVuSans-6e" d="M 3513 2113 
L 3513 0 
L 2938 0 
L 2938 2094 
Q 2938 2591 2744 2837 
Q 2550 3084 2163 3084 
Q 1697 3084 1428 2787 
Q 1159 2491 1159 1978 
L 1159 0 
L 581 0 
L 581 3500 
L 1159 3500 
L 1159 2956 
Q 1366 3272 1645 3428 
Q 1925 3584 2291 3584 
Q 2894 3584 3203 3211 
Q 3513 2838 3513 2113 
z
" transform="scale(0.015625)"/>
       <path id="DejaVuSans-73" d="M 2834 3397 
L 2834 2853 
Q 2591 2978 2328 3040 
Q 2066 3103 1784 3103 
Q 1356 3103 1142 2972 
Q 928 2841 928 2578 
Q 928 2378 1081 2264 
Q 1234 2150 1697 2047 
L 1894 2003 
Q 2506 1872 2764 1633 
Q 3022 1394 3022 966 
Q 3022 478 2636 193 
Q 2250 -91 1575 -91 
Q 1294 -91 989 -36 
Q 684 19 347 128 
L 347 722 
Q 666 556 975 473 
Q 1284 391 1588 391 
Q 1994 391 2212 530 
Q 2431 669 2431 922 
Q 2431 1156 2273 1281 
Q 2116 1406 1581 1522 
L 1381 1569 
Q 847 1681 609 1914 
Q 372 2147 372 2553 
Q 372 3047 722 3315 
Q 1072 3584 1716 3584 
Q 2034 3584 2315 3537 
Q 2597 3491 2834 3397 
z
" transform="scale(0.015625)"/>
      </defs>
      <use xlink:href="#DejaVuSans-69"/>
      <use xlink:href="#DejaVuSans-74" x="27.783203"/>
      <use xlink:href="#DejaVuSans-65" x="66.992188"/>
      <use xlink:href="#DejaVuSans-72" x="128.515625"/>
      <use xlink:href="#DejaVuSans-61" x="169.628906"/>
      <use xlink:href="#DejaVuSans-74" x="230.908203"/>
      <use xlink:href="#DejaVuSans-69" x="270.117188"/>
      <use xlink:href="#DejaVuSans-6f" x="297.900391"/>
      <use xlink:href="#DejaVuSans-6e" x="359.082031"/>
      <use xlink:href="#DejaVuSans-73" x="422.460938"/>
     </g>
    </g>
   </g>
   <g id="matplotlib.axis_2">
    <g id="ytick_1">
     <g id="line2d_8">
      <defs>
       <path id="m68e6cb639f" d="M 0 0 
L -3.5 0 
" style="stroke: #000000; stroke-width: 0.8"/>
      </defs>
      <g>
       <use xlink:href="#m68e6cb639f" x="43.78125" y="231.771627" style="stroke: #000000; stroke-width: 0.8"/>
      </g>
     </g>
     <g id="text_9">
      <!-- 0.0 -->
      <g transform="translate(20.878125 235.570846) scale(0.1 -0.1)">
       <defs>
        <path id="DejaVuSans-2e" d="M 684 794 
L 1344 794 
L 1344 0 
L 684 0 
L 684 794 
z
" transform="scale(0.015625)"/>
       </defs>
       <use xlink:href="#DejaVuSans-30"/>
       <use xlink:href="#DejaVuSans-2e" x="63.623047"/>
       <use xlink:href="#DejaVuSans-30" x="95.410156"/>
      </g>
     </g>
    </g>
    <g id="ytick_2">
     <g id="line2d_9">
      <g>
       <use xlink:href="#m68e6cb639f" x="43.78125" y="189.915643" style="stroke: #000000; stroke-width: 0.8"/>
      </g>
     </g>
     <g id="text_10">
      <!-- 0.5 -->
      <g transform="translate(20.878125 193.714862) scale(0.1 -0.1)">
       <use xlink:href="#DejaVuSans-30"/>
       <use xlink:href="#DejaVuSans-2e" x="63.623047"/>
       <use xlink:href="#DejaVuSans-35" x="95.410156"/>
      </g>
     </g>
    </g>
    <g id="ytick_3">
     <g id="line2d_10">
      <g>
       <use xlink:href="#m68e6cb639f" x="43.78125" y="148.05966" style="stroke: #000000; stroke-width: 0.8"/>
      </g>
     </g>
     <g id="text_11">
      <!-- 1.0 -->
      <g transform="translate(20.878125 151.858878) scale(0.1 -0.1)">
       <use xlink:href="#DejaVuSans-31"/>
       <use xlink:href="#DejaVuSans-2e" x="63.623047"/>
       <use xlink:href="#DejaVuSans-30" x="95.410156"/>
      </g>
     </g>
    </g>
    <g id="ytick_4">
     <g id="line2d_11">
      <g>
       <use xlink:href="#m68e6cb639f" x="43.78125" y="106.203676" style="stroke: #000000; stroke-width: 0.8"/>
      </g>
     </g>
     <g id="text_12">
      <!-- 1.5 -->
      <g transform="translate(20.878125 110.002895) scale(0.1 -0.1)">
       <use xlink:href="#DejaVuSans-31"/>
       <use xlink:href="#DejaVuSans-2e" x="63.623047"/>
       <use xlink:href="#DejaVuSans-35" x="95.410156"/>
      </g>
     </g>
    </g>
    <g id="ytick_5">
     <g id="line2d_12">
      <g>
       <use xlink:href="#m68e6cb639f" x="43.78125" y="64.347692" style="stroke: #000000; stroke-width: 0.8"/>
      </g>
     </g>
     <g id="text_13">
      <!-- 2.0 -->
      <g transform="translate(20.878125 68.146911) scale(0.1 -0.1)">
       <use xlink:href="#DejaVuSans-32"/>
       <use xlink:href="#DejaVuSans-2e" x="63.623047"/>
       <use xlink:href="#DejaVuSans-30" x="95.410156"/>
      </g>
     </g>
    </g>
    <g id="ytick_6">
     <g id="line2d_13">
      <g>
       <use xlink:href="#m68e6cb639f" x="43.78125" y="22.491708" style="stroke: #000000; stroke-width: 0.8"/>
      </g>
     </g>
     <g id="text_14">
      <!-- 2.5 -->
      <g transform="translate(20.878125 26.290927) scale(0.1 -0.1)">
       <use xlink:href="#DejaVuSans-32"/>
       <use xlink:href="#DejaVuSans-2e" x="63.623047"/>
       <use xlink:href="#DejaVuSans-35" x="95.410156"/>
      </g>
     </g>
    </g>
    <g id="text_15">
     <!-- Loss -->
     <g transform="translate(14.798438 137.606406) rotate(-90) scale(0.1 -0.1)">
      <defs>
       <path id="DejaVuSans-4c" d="M 628 4666 
L 1259 4666 
L 1259 531 
L 3531 531 
L 3531 0 
L 628 0 
L 628 4666 
z
" transform="scale(0.015625)"/>
      </defs>
      <use xlink:href="#DejaVuSans-4c"/>
      <use xlink:href="#DejaVuSans-6f" x="53.962891"/>
      <use xlink:href="#DejaVuSans-73" x="115.144531"/>
      <use xlink:href="#DejaVuSans-73" x="167.244141"/>
     </g>
    </g>
   </g>
   <g id="line2d_14">
    <path d="M 57.585114 21.511946 
L 57.762086 123.641637 
L 57.806329 124.831512 
L 57.850573 123.848726 
L 58.071788 158.814146 
L 58.116031 158.808458 
L 58.38149 176.997532 
L 58.425734 172.473362 
L 58.469977 181.824487 
L 58.51422 178.009467 
L 58.558463 174.912309 
L 58.691192 188.370602 
L 58.779679 182.508729 
L 58.868165 196.56884 
L 58.912408 193.784921 
L 58.956651 186.676181 
L 59.000895 199.269007 
L 59.089381 194.179328 
L 59.133624 194.141551 
L 59.310597 209.273022 
L 59.35484 205.238813 
L 59.399083 198.359908 
L 59.443326 206.963161 
L 59.487569 204.466901 
L 59.531812 204.883167 
L 59.576056 208.771161 
L 59.664542 193.779442 
L 59.708785 202.778475 
L 59.753028 211.051918 
L 59.841514 207.678611 
L 59.885758 198.197179 
L 59.930001 207.219902 
L 60.018487 210.643629 
L 60.06273 205.160498 
L 60.106973 206.070141 
L 60.239703 213.44083 
L 60.283946 212.955749 
L 60.328189 214.381185 
L 60.460919 206.122175 
L 60.505162 215.876994 
L 60.549405 213.972299 
L 60.593648 208.262614 
L 60.637891 214.041752 
L 60.682134 218.567196 
L 60.726377 216.543283 
L 60.770621 215.915622 
L 60.859107 221.852018 
L 60.90335 212.727921 
L 60.947593 216.176324 
L 60.991836 220.233307 
L 61.03608 217.070918 
L 61.080323 216.186681 
L 61.124566 220.520381 
L 61.168809 215.809054 
L 61.213052 220.165489 
L 61.301538 207.128353 
L 61.345782 215.739698 
L 61.390025 215.16539 
L 61.434268 210.091477 
L 61.522754 220.591133 
L 61.566997 212.21968 
L 61.655484 212.828401 
L 61.699727 222.7805 
L 61.74397 215.985427 
L 61.832456 216.067884 
L 61.876699 215.215684 
L 61.920943 215.968112 
L 61.965186 213.071715 
L 62.009429 222.148882 
L 62.097915 219.727911 
L 62.142158 218.83076 
L 62.186402 219.971727 
L 62.230645 213.380735 
L 62.274888 214.053808 
L 62.407617 221.614565 
L 62.45186 221.189403 
L 62.540347 223.602355 
L 62.628833 208.018252 
L 62.673076 209.650208 
L 62.717319 221.903801 
L 62.761563 219.451467 
L 62.805806 215.499851 
L 62.850049 224.473461 
L 62.938535 222.52532 
L 62.982778 222.453946 
L 63.027021 217.712937 
L 63.071265 222.590594 
L 63.115508 218.274945 
L 63.203994 226.311091 
L 63.248237 224.876937 
L 63.380967 221.421595 
L 63.42521 225.459188 
L 63.469453 223.998641 
L 63.557939 210.526575 
L 63.602182 226.149474 
L 63.690669 225.752611 
L 63.734912 226.390953 
L 63.867641 220.803354 
L 64.000371 226.777011 
L 64.088857 221.634678 
L 64.1331 222.614277 
L 64.221587 223.962841 
L 64.26583 220.523815 
L 64.310073 221.040527 
L 64.354316 225.955443 
L 64.398559 216.317403 
L 64.442802 217.934529 
L 64.487045 225.482166 
L 64.575532 223.864345 
L 64.619775 224.069183 
L 64.664018 223.946052 
L 64.752504 228.621609 
L 64.796748 222.466841 
L 64.885234 223.796586 
L 65.062206 228.195096 
L 65.150693 227.33078 
L 65.239179 223.97504 
L 65.283422 224.398718 
L 65.371909 226.631273 
L 65.416152 223.381744 
L 65.504638 224.416418 
L 65.548881 227.968732 
L 65.637367 227.043342 
L 65.681611 228.216119 
L 65.725854 220.052333 
L 65.770097 224.898237 
L 65.858583 228.211998 
L 65.902826 215.893114 
L 65.947069 226.205319 
L 65.991313 224.608998 
L 66.079799 228.805585 
L 66.168285 224.236018 
L 66.212528 225.766059 
L 66.256772 225.809465 
L 66.301015 220.888433 
L 66.345258 222.980832 
L 66.52223 229.091961 
L 66.566474 224.949137 
L 66.610717 226.223416 
L 66.65496 228.172589 
L 66.699203 226.144005 
L 66.743446 225.385412 
L 66.876176 226.984012 
L 66.964662 225.614767 
L 67.008905 218.166209 
L 67.053148 226.057974 
L 67.185878 228.654214 
L 67.274364 223.879378 
L 67.36285 222.379106 
L 67.407094 229.135124 
L 67.451337 224.983704 
L 67.539823 226.601025 
L 67.584066 225.139395 
L 67.628309 225.650827 
L 67.672552 218.373758 
L 67.716796 228.132672 
L 67.761039 222.069326 
L 67.805282 228.605026 
L 67.893768 225.510532 
L 67.938011 223.375099 
L 67.982255 225.943376 
L 68.114984 228.922485 
L 68.20347 219.07113 
L 68.291957 221.884736 
L 68.3362 228.096712 
L 68.424686 227.119755 
L 68.468929 228.850214 
L 68.557416 222.35957 
L 68.690145 228.910803 
L 68.734388 225.220971 
L 68.778631 226.497825 
L 68.867118 229.26495 
L 68.911361 227.581524 
L 68.955604 226.235568 
L 68.999847 229.63696 
L 69.04409 228.878679 
L 69.17682 221.625132 
L 69.265306 226.304077 
L 69.309549 220.853989 
L 69.353792 226.918369 
L 69.398035 223.58099 
L 69.442279 227.650027 
L 69.530765 227.045919 
L 69.575008 228.829978 
L 69.619251 224.045854 
L 69.663494 224.234043 
L 69.751981 230.063303 
L 69.796224 220.141088 
L 69.840467 226.10064 
L 69.88471 228.081344 
L 69.928953 227.908146 
L 70.01744 224.58397 
L 70.061683 229.076773 
L 70.105926 229.008103 
L 70.238655 221.75138 
L 70.282898 222.866248 
L 70.327142 227.695817 
L 70.371385 217.027023 
L 70.415628 221.460899 
L 70.504114 228.1127 
L 70.592601 226.13246 
L 70.636844 223.219908 
L 70.681087 227.985384 
L 70.72533 225.688762 
L 70.769573 222.389549 
L 70.813816 228.742338 
L 70.902303 226.419473 
L 70.990789 222.711686 
L 71.035032 229.352299 
L 71.123518 228.931889 
L 71.167762 221.179916 
L 71.256248 223.201583 
L 71.300491 222.254875 
L 71.344734 229.634278 
L 71.43322 226.828354 
L 71.477464 224.448082 
L 71.521707 224.711914 
L 71.56595 230.238963 
L 71.654436 229.025641 
L 71.742922 229.64661 
L 71.787166 226.567076 
L 71.875652 226.944906 
L 71.964138 229.93317 
L 72.008381 226.989532 
L 72.052625 229.455859 
L 72.096868 230.452429 
L 72.185354 227.703311 
L 72.229597 227.859272 
L 72.27384 227.922931 
L 72.318083 229.125431 
L 72.362327 227.355295 
L 72.40657 221.502806 
L 72.450813 226.462377 
L 72.539299 230.422402 
L 72.583542 227.615843 
L 72.672029 230.090306 
L 72.804758 227.192667 
L 72.849001 229.35673 
L 72.937488 223.444847 
L 73.070217 230.240637 
L 73.11446 229.597135 
L 73.158703 229.751075 
L 73.24719 230.367812 
L 73.291433 227.325096 
L 73.335676 228.690207 
L 73.379919 229.466123 
L 73.424162 229.361608 
L 73.468405 228.647513 
L 73.512649 220.075336 
L 73.556892 230.707866 
L 73.733864 226.381169 
L 73.822351 230.631267 
L 73.866594 229.477475 
L 73.910837 229.257701 
L 73.95508 230.467682 
L 73.999323 230.164505 
L 74.043566 228.60433 
L 74.08781 229.133517 
L 74.176296 230.529129 
L 74.220539 230.44372 
L 74.264782 226.126544 
L 74.309025 229.011835 
L 74.441755 227.155287 
L 74.530241 229.236173 
L 74.574484 227.271514 
L 74.662971 228.116855 
L 74.707214 227.274678 
L 74.751457 230.148769 
L 74.839943 229.789947 
L 74.884186 229.637674 
L 74.928429 230.161268 
L 74.972673 228.288799 
L 75.016916 230.510437 
L 75.061159 230.228936 
L 75.105402 227.992114 
L 75.149645 230.632942 
L 75.193888 229.012164 
L 75.282375 230.718732 
L 75.326618 226.237974 
L 75.370861 229.060994 
L 75.459347 230.200489 
L 75.50359 229.459061 
L 75.547834 229.908919 
L 75.63632 230.955951 
L 75.680563 226.887733 
L 75.724806 229.334014 
L 75.769049 229.908004 
L 75.813293 225.604819 
L 75.857536 230.888126 
L 75.901779 230.698072 
L 75.946022 223.668568 
L 75.990265 224.652244 
L 76.034508 231.035045 
L 76.078751 221.157618 
L 76.122995 230.270206 
L 76.167238 229.389666 
L 76.211481 225.06004 
L 76.255724 227.18498 
L 76.299967 230.41701 
L 76.388454 229.739203 
L 76.432697 229.367778 
L 76.521183 230.892659 
L 76.565426 230.440116 
L 76.742399 225.776328 
L 76.786642 230.499952 
L 76.830885 226.360701 
L 76.875128 227.177616 
L 76.919371 230.087008 
L 76.963615 226.761332 
L 77.007858 229.712551 
L 77.052101 228.547686 
L 77.096344 231.124222 
L 77.140587 225.831946 
L 77.229073 228.516589 
L 77.273317 229.491477 
L 77.31756 227.638031 
L 77.361803 229.11804 
L 77.406046 230.409535 
L 77.450289 230.176263 
L 77.494532 228.179226 
L 77.538775 230.729922 
L 77.627262 230.143354 
L 77.671505 225.794466 
L 77.759991 226.184788 
L 77.892721 230.403243 
L 77.981207 229.487639 
L 78.02545 230.332308 
L 78.113936 230.100015 
L 78.246666 226.183449 
L 78.379395 230.88426 
L 78.423639 230.279088 
L 78.467882 230.643026 
L 78.512125 230.849555 
L 78.556368 229.53902 
L 78.600611 230.086402 
L 78.689097 230.966304 
L 78.777584 231.054109 
L 78.821827 228.201647 
L 78.86607 230.997648 
L 78.954556 230.556869 
L 79.087286 229.749945 
L 79.131529 231.097339 
L 79.220015 230.999943 
L 79.308502 231.225408 
L 79.529717 228.319321 
L 79.618204 230.747868 
L 79.662447 230.668143 
L 79.839419 230.942834 
L 79.883663 226.868475 
L 79.927906 230.943723 
L 79.972149 230.698732 
L 80.016392 230.788079 
L 80.060635 228.47725 
L 80.104878 230.077055 
L 80.237608 231.254882 
L 80.281851 228.084137 
L 80.326094 228.795085 
L 80.458824 230.382179 
L 80.54731 230.580808 
L 80.591553 227.871158 
L 80.680039 226.915479 
L 80.724282 230.98271 
L 80.768526 230.948915 
L 80.812769 228.071395 
L 80.857012 231.133981 
L 80.901255 228.553457 
L 80.945498 230.67868 
L 81.033985 230.578134 
L 81.078228 227.768002 
L 81.122471 229.601144 
L 81.210957 231.334215 
L 81.2552 231.127624 
L 81.299443 229.896411 
L 81.343687 230.218353 
L 81.38793 231.393195 
L 81.476416 230.949428 
L 81.520659 231.120883 
L 81.653389 228.967146 
L 81.697632 230.898705 
L 81.741875 230.76866 
L 81.786118 225.122983 
L 81.830361 229.527074 
L 81.874604 231.119659 
L 81.918848 228.181751 
L 81.963091 229.410892 
L 82.007334 229.78014 
L 82.051577 231.435801 
L 82.09582 230.951752 
L 82.184307 229.263779 
L 82.22855 230.767759 
L 82.317036 230.323972 
L 82.361279 230.934797 
L 82.494009 227.145344 
L 82.538252 231.053596 
L 82.582495 229.959589 
L 82.626738 228.15959 
L 82.670981 229.328683 
L 82.847954 231.026435 
L 82.892197 230.834921 
L 82.93644 230.115513 
L 82.980683 230.514044 
L 83.024926 230.7694 
L 83.157656 227.539331 
L 83.246142 230.991371 
L 83.290385 230.195447 
L 83.334628 229.610172 
L 83.378872 229.897748 
L 83.423115 226.151135 
L 83.511601 227.600116 
L 83.555844 225.835636 
L 83.644331 230.845711 
L 83.688574 228.629652 
L 83.821303 230.752855 
L 83.865546 229.435756 
L 83.909789 223.989612 
L 83.954033 230.288008 
L 83.998276 229.696352 
L 84.086762 229.402723 
L 84.131005 231.018962 
L 84.175248 227.97259 
L 84.263735 228.329251 
L 84.352221 231.370288 
L 84.396464 229.773613 
L 84.440707 230.564772 
L 84.48495 229.681384 
L 84.529194 230.364947 
L 84.573437 225.178973 
L 84.661923 226.678962 
L 84.750409 231.320807 
L 84.794653 229.279213 
L 84.838896 231.345085 
L 84.927382 231.061735 
L 85.060111 229.889927 
L 85.104355 231.19217 
L 85.192841 231.024424 
L 85.237084 231.349351 
L 85.369814 226.990475 
L 85.4583 231.246864 
L 85.502543 230.922895 
L 85.546786 229.841049 
L 85.591029 231.309479 
L 85.635272 230.209208 
L 85.768002 231.224952 
L 85.812245 230.932069 
L 85.856488 231.108889 
L 85.900731 231.480233 
L 85.944975 227.086962 
L 85.989218 230.992982 
L 86.033461 231.446083 
L 86.077704 231.01684 
L 86.121947 229.495524 
L 86.16619 230.214651 
L 86.254677 231.412002 
L 86.387406 225.145946 
L 86.475892 231.421837 
L 86.520135 230.493009 
L 86.564379 230.825164 
L 86.608622 230.363433 
L 86.652865 227.25581 
L 86.697108 230.625903 
L 86.741351 230.472137 
L 86.785594 231.378292 
L 86.829838 230.312347 
L 86.874081 228.246002 
L 86.918324 228.311743 
L 87.00681 231.363427 
L 87.051053 229.959568 
L 87.095296 229.901206 
L 87.13954 230.542787 
L 87.183783 229.153418 
L 87.228026 230.793887 
L 87.272269 231.080662 
L 87.360755 230.978108 
L 87.493485 231.428997 
L 87.537728 230.844767 
L 87.581971 231.479522 
L 87.626214 231.088964 
L 87.670457 230.83128 
L 87.714701 231.318712 
L 87.758944 231.260987 
L 87.84743 230.676121 
L 87.891673 231.382894 
L 87.935916 230.999534 
L 87.98016 230.788773 
L 88.024403 229.793671 
L 88.068646 231.1326 
L 88.112889 231.122055 
L 88.157132 228.759877 
L 88.201375 231.35062 
L 88.245618 231.136112 
L 88.289862 229.977551 
L 88.334105 231.440363 
L 88.378348 231.461906 
L 88.466834 230.5395 
L 88.555321 230.886229 
L 88.599564 231.43688 
L 88.68805 231.239128 
L 88.732293 231.237033 
L 88.865023 231.597101 
L 88.997752 228.942734 
L 89.041995 231.383146 
L 89.086238 228.70961 
L 89.130481 231.080551 
L 89.263211 229.598535 
L 89.218968 231.155382 
L 89.307454 230.051463 
L 89.351697 225.617891 
L 89.39594 230.985417 
L 89.52867 231.119405 
L 89.572913 229.003937 
L 89.617156 231.43452 
L 89.661399 229.288364 
L 89.794129 230.839387 
L 89.882615 231.161037 
L 90.015345 229.950842 
L 90.059588 231.187483 
L 90.103831 229.255736 
L 90.192317 230.130045 
L 90.23656 231.179952 
L 90.280803 231.099353 
L 90.325047 230.407489 
L 90.36929 230.952132 
L 90.413533 231.438234 
L 90.457776 231.070345 
L 90.502019 229.816214 
L 90.590506 230.446368 
L 90.634749 231.021275 
L 90.678992 227.315363 
L 90.723235 231.294616 
L 90.767478 231.489634 
L 90.811721 231.188905 
L 90.855964 227.396081 
L 90.900208 231.366817 
L 91.032937 230.710691 
L 91.07718 230.583459 
L 91.121423 228.236315 
L 91.165667 229.774883 
L 91.298396 231.138026 
L 91.386882 231.446159 
L 91.431125 221.459672 
L 91.475369 231.374756 
L 91.563855 231.342124 
L 91.652341 230.997052 
L 91.696584 231.385412 
L 91.740828 220.441221 
L 91.785071 231.019978 
L 91.873557 231.154363 
L 91.962043 228.676478 
L 92.094773 231.118892 
L 92.139016 230.735454 
L 92.183259 230.806639 
L 92.227502 231.566551 
L 92.271745 230.558689 
L 92.315988 231.204674 
L 92.360232 230.083642 
L 92.404475 230.777267 
L 92.448718 230.704659 
L 92.537204 231.42363 
L 92.625691 230.624082 
L 92.669934 230.851422 
L 92.714177 231.272818 
L 92.75842 227.254561 
L 92.802663 231.184285 
L 92.935393 229.959614 
L 92.979636 227.980901 
L 93.023879 229.876905 
L 93.068122 231.302597 
L 93.156608 231.294209 
L 93.200852 231.435253 
L 93.245095 231.407739 
L 93.289338 231.130781 
L 93.333581 228.409607 
L 93.377824 230.196224 
L 93.422067 231.15193 
L 93.46631 230.333926 
L 93.510554 223.874454 
L 93.554797 230.90087 
L 93.59904 228.499979 
L 93.643283 231.408009 
L 93.687526 231.210152 
L 93.820256 229.856156 
L 93.864499 231.212419 
L 93.908742 230.999242 
L 93.952985 227.077552 
L 94.041471 228.544711 
L 94.129958 226.373609 
L 94.174201 226.84648 
L 94.262687 231.021884 
L 94.30693 230.939578 
L 94.351174 228.432223 
L 94.395417 230.980469 
L 94.43966 229.813247 
L 94.483903 230.726685 
L 94.528146 223.344005 
L 94.616632 225.767135 
L 94.705119 231.101538 
L 94.793605 230.854412 
L 94.837848 230.997487 
L 94.882091 230.003835 
L 94.926334 223.323204 
L 95.014821 226.470739 
L 95.103307 231.033062 
L 95.14755 230.549094 
L 95.191793 228.669839 
L 95.236037 229.973277 
L 95.413009 231.406884 
L 95.457252 228.249698 
L 95.501495 230.726031 
L 95.545739 230.809312 
L 95.589982 227.758847 
L 95.678468 228.57232 
L 95.766954 230.77249 
L 95.811198 230.401167 
L 95.855441 228.240151 
L 95.899684 230.251023 
L 95.943927 231.206242 
L 95.98817 228.180262 
L 96.032413 228.417865 
L 96.1209 231.069461 
L 96.165143 230.789738 
L 96.297872 228.062617 
L 96.342115 227.375678 
L 96.386359 230.747128 
L 96.474845 230.53656 
L 96.563331 229.581169 
L 96.696061 231.505267 
L 96.740304 231.521097 
L 96.784547 230.464037 
L 96.82879 231.025814 
L 96.873033 231.368526 
L 96.917276 228.726536 
L 96.96152 229.947373 
L 97.094249 230.874003 
L 97.182735 229.606746 
L 97.226978 229.977047 
L 97.359708 231.232167 
L 97.403951 230.26404 
L 97.448194 231.372929 
L 97.580924 230.449611 
L 97.625167 231.468947 
L 97.66941 230.927607 
L 97.713653 230.065464 
L 97.757896 231.358094 
L 97.846383 231.424314 
L 97.890626 230.264284 
L 97.934869 230.745732 
L 97.979112 230.230097 
L 98.067598 227.708977 
L 98.156085 231.163516 
L 98.200328 230.964204 
L 98.288814 231.597287 
L 98.421544 229.190326 
L 98.465787 230.989488 
L 98.554273 230.825876 
L 98.598516 226.847059 
L 98.642759 230.30021 
L 98.731246 230.796061 
L 98.863975 226.202953 
L 98.819732 231.103541 
L 98.908218 227.05201 
L 98.952461 231.393005 
L 99.040948 231.259503 
L 99.085191 231.369093 
L 99.129434 230.241044 
L 99.21792 230.325915 
L 99.262163 230.666104 
L 99.306407 229.727354 
L 99.35065 230.927728 
L 99.394893 230.801653 
L 99.439136 231.04932 
L 99.527622 229.97457 
L 99.660352 231.610458 
L 99.748838 229.919935 
L 99.837324 230.754385 
L 99.970054 231.577457 
L 100.014297 229.957079 
L 100.05854 231.365169 
L 100.147027 231.248633 
L 100.19127 230.576724 
L 100.235513 227.96955 
L 100.279756 231.20812 
L 100.368242 230.940619 
L 100.456729 231.55271 
L 100.545215 229.736784 
L 100.589458 230.683963 
L 100.722188 231.337637 
L 100.766431 231.131567 
L 100.810674 231.194633 
L 100.854917 231.451585 
L 100.89916 230.08454 
L 100.987646 230.315922 
L 101.03189 230.002637 
L 101.120376 231.383484 
L 101.208862 229.894825 
L 101.253105 231.341886 
L 101.341592 230.857585 
L 101.385835 230.612497 
L 101.430078 229.680381 
L 101.518564 231.643694 
L 101.562807 231.623373 
L 101.695537 231.231538 
L 101.73978 231.583653 
L 101.784023 231.396196 
L 101.916753 229.121906 
L 101.960996 229.819229 
L 102.005239 231.244991 
L 102.093725 230.902473 
L 102.137968 230.062595 
L 102.182212 230.921256 
L 102.226455 231.59341 
L 102.270698 230.531305 
L 102.314941 231.085317 
L 102.491914 231.514029 
L 102.5804 226.18725 
L 102.624643 230.044345 
L 102.713129 231.516149 
L 102.757373 231.332475 
L 102.845859 231.443069 
L 102.890102 229.666249 
L 102.978588 231.182235 
L 103.022831 230.982734 
L 103.067075 230.283956 
L 103.111318 231.112635 
L 103.155561 230.490864 
L 103.244047 231.53749 
L 103.28829 230.883148 
L 103.332534 231.327731 
L 103.376777 231.397854 
L 103.465263 230.369609 
L 103.553749 231.366262 
L 103.597992 230.834413 
L 103.642236 231.553203 
L 103.730722 231.514284 
L 103.819208 231.098048 
L 103.863451 231.258689 
L 103.907694 231.515077 
L 104.040424 230.082895 
L 104.084667 231.334363 
L 104.173153 231.268761 
L 104.217397 231.591125 
L 104.26164 231.416223 
L 104.305883 231.175841 
L 104.350126 231.646891 
L 104.438612 231.536549 
L 104.571342 231.635793 
L 104.615585 228.608454 
L 104.659828 231.53871 
L 104.836801 231.203251 
L 104.96953 231.480187 
L 105.013773 230.69573 
L 105.058016 231.554687 
L 105.146503 231.553086 
L 105.190746 231.035385 
L 105.234989 231.478476 
L 105.279232 228.064466 
L 105.323475 231.57092 
L 105.367719 228.547468 
L 105.500448 231.252021 
L 105.544691 229.274454 
L 105.588934 230.964618 
L 105.721664 231.602945 
L 105.81015 230.690173 
L 105.854393 231.347845 
L 105.898636 231.513123 
L 105.94288 230.704929 
L 105.987123 230.71229 
L 106.031366 231.5254 
L 106.119852 231.444236 
L 106.164095 231.582719 
L 106.208338 229.241828 
L 106.252582 231.143466 
L 106.385311 231.641587 
L 106.429554 231.545698 
L 106.473797 231.663538 
L 106.518041 231.161507 
L 106.562284 231.177703 
L 106.65077 231.594604 
L 106.695013 231.574724 
L 106.739256 231.401163 
L 106.783499 231.435374 
L 106.827743 230.520212 
L 106.871986 231.675123 
L 107.004715 230.351176 
L 107.137445 231.64061 
L 107.181688 231.625274 
L 107.225931 231.402214 
L 107.270174 231.44397 
L 107.314417 231.553293 
L 107.35866 230.349427 
L 107.402904 231.641981 
L 107.447147 231.612388 
L 107.49139 230.954721 
L 107.535633 231.179834 
L 107.712606 231.678642 
L 107.889578 231.383195 
L 107.933821 229.387626 
L 107.978065 231.646259 
L 108.066551 231.308508 
L 108.110794 231.650604 
L 108.155037 231.08706 
L 108.19928 231.54798 
L 108.243523 231.645778 
L 108.287767 231.118925 
L 108.33201 231.441964 
L 108.376253 231.566499 
L 108.464739 230.991967 
L 108.553226 231.687715 
L 108.597469 231.463962 
L 108.774441 231.369467 
L 108.818684 231.658729 
L 108.862928 231.602198 
L 108.907171 230.908298 
L 108.951414 231.698104 
L 109.0399 231.500064 
L 109.084143 231.636331 
L 109.216873 231.635468 
L 109.261116 231.699334 
L 109.305359 231.570034 
L 109.349602 231.629716 
L 109.393845 231.491167 
L 109.438089 231.543022 
L 109.482332 231.69919 
L 109.526575 231.264488 
L 109.570818 231.647624 
L 109.615061 231.545506 
L 109.659304 230.79089 
L 109.703547 230.999464 
L 109.747791 231.686868 
L 109.792034 230.800078 
L 109.836277 231.60408 
L 109.969006 231.658837 
L 110.057493 231.627965 
L 110.101736 230.406729 
L 110.145979 231.712012 
L 110.190222 231.586759 
L 110.234465 231.70384 
L 110.544167 231.494777 
L 110.588411 231.565713 
L 110.632654 231.311087 
L 110.676897 231.560282 
L 110.72114 229.521682 
L 110.765383 230.544236 
L 110.809626 231.664263 
L 110.898113 231.522963 
L 110.942356 231.360575 
L 110.986599 230.227911 
L 111.030842 231.614288 
L 111.163572 230.513832 
L 111.252058 231.438914 
L 111.296301 230.687839 
L 111.340544 231.678484 
L 111.42903 231.436927 
L 111.473274 231.66993 
L 111.517517 231.246594 
L 111.56176 231.64503 
L 111.694489 230.939798 
L 111.738733 230.493271 
L 111.871462 231.655842 
L 111.959948 231.498338 
L 112.004191 230.030967 
L 112.048435 231.547082 
L 112.136921 231.461985 
L 112.181164 231.228926 
L 112.26965 231.670077 
L 112.313894 230.482475 
L 112.358137 231.692245 
L 112.40238 230.602096 
L 112.446623 231.620689 
L 112.535109 231.378874 
L 112.579352 229.034801 
L 112.623596 231.501361 
L 112.667839 231.461819 
L 112.712082 231.647485 
L 112.800568 231.624286 
L 112.933298 231.349029 
L 112.977541 231.499474 
L 113.066027 231.649996 
L 113.243 230.708834 
L 113.331486 231.694474 
L 113.375729 231.62086 
L 113.464215 231.710495 
L 113.552702 231.520446 
L 113.596945 231.625321 
L 113.641188 231.651281 
L 113.685431 231.468645 
L 113.773918 231.530377 
L 113.818161 231.448929 
L 113.862404 230.952964 
L 113.906647 231.694339 
L 114.039376 231.525311 
L 114.08362 231.636421 
L 114.127863 231.052189 
L 114.172106 231.632993 
L 114.260592 231.695101 
L 114.304835 231.334698 
L 114.393322 231.445082 
L 114.481808 231.681075 
L 114.526051 231.662776 
L 114.570294 231.317531 
L 114.614537 231.553643 
L 114.658781 231.523764 
L 114.747267 231.688822 
L 114.879996 231.590798 
L 114.92424 231.703257 
L 114.968483 231.547217 
L 115.145455 231.669926 
L 115.233942 231.320451 
L 115.322428 231.688661 
L 115.410914 230.263993 
L 115.543644 231.729788 
L 115.764859 231.652608 
L 115.853346 231.523647 
L 115.897589 231.601588 
L 115.986075 231.632345 
L 116.163048 230.784351 
L 116.295777 231.679556 
L 116.384264 231.459351 
L 116.428507 231.610176 
L 116.47275 231.696977 
L 116.516993 231.626152 
L 116.561236 231.587566 
L 116.605479 231.653681 
L 116.649722 231.674071 
L 116.693966 231.573628 
L 116.826695 231.600762 
L 116.870938 231.242048 
L 116.915181 231.728541 
L 116.959425 231.60808 
L 117.047911 231.680339 
L 117.092154 231.593612 
L 117.136397 231.723033 
L 117.18064 231.673477 
L 117.224883 231.30265 
L 117.269127 231.660024 
L 117.357613 231.616191 
L 117.401856 231.48588 
L 117.446099 231.519687 
L 117.578829 231.738023 
L 117.755801 231.504476 
L 117.800044 231.614587 
L 117.844288 231.705143 
L 117.888531 231.626457 
L 117.932774 231.569654 
L 117.977017 231.712642 
L 118.02126 231.680988 
L 118.065503 231.579576 
L 118.109747 231.647269 
L 118.286719 231.735115 
L 118.375205 231.411439 
L 118.419449 231.719887 
L 118.463692 231.634725 
L 118.507935 231.429147 
L 118.552178 231.685118 
L 118.684907 231.560414 
L 118.773394 231.696392 
L 118.817637 231.648416 
L 119.038853 231.521097 
L 119.215825 231.641945 
L 119.348555 231.717976 
L 119.658257 231.527063 
L 119.790986 231.724191 
L 120.144932 231.710774 
L 120.41039 231.729321 
L 120.454634 231.471849 
L 120.498877 231.632288 
L 120.631606 231.713072 
L 120.808579 231.71586 
L 120.985551 231.710755 
L 121.118281 231.60326 
L 121.25101 231.718654 
L 121.38374 231.617253 
L 121.516469 231.715061 
L 122.180117 231.663206 
L 122.357089 231.740292 
L 122.401332 231.743962 
L 122.445575 231.614397 
L 122.489819 231.73424 
L 122.888007 231.648739 
L 123.109223 231.722717 
L 123.197709 231.611862 
L 123.241952 231.724025 
L 123.418925 231.63344 
L 123.463168 231.695157 
L 124.61349 231.725424 
L 124.834706 231.745192 
L 125.011678 231.674869 
L 125.144408 231.732106 
L 125.45411 231.699381 
L 125.719569 231.741313 
L 125.852298 231.620542 
L 125.985028 231.730412 
L 126.029271 231.424571 
L 126.073514 231.709305 
L 126.117757 231.745913 
L 126.162 231.689885 
L 126.206243 231.65117 
L 126.250487 231.704032 
L 126.427459 231.745421 
L 126.560189 231.721762 
L 126.781404 231.723324 
L 127.179593 231.638768 
L 127.312322 231.739309 
L 127.622024 231.7035 
L 127.84324 231.744183 
L 130.940261 231.736256 
L 131.161477 231.728003 
L 131.338449 231.709162 
L 131.515422 231.706298 
L 132.444528 231.726223 
L 132.665744 231.73549 
L 133.196662 231.739288 
L 133.860309 231.740511 
L 134.081525 231.726432 
L 134.656686 231.72419 
L 134.700929 231.672627 
L 134.745172 231.755195 
L 135.320333 231.718764 
L 135.497306 231.741997 
L 135.807008 231.742281 
L 136.647627 231.742007 
L 138.992515 231.732022 
L 139.036758 231.659733 
L 139.081001 231.741086 
L 139.479189 231.749276 
L 139.611919 231.746705 
L 139.921621 231.721019 
L 140.275566 231.748653 
L 142.089535 231.73008 
L 142.266508 231.748303 
L 142.620453 231.717325 
L 142.974398 231.756438 
L 143.151371 231.665605 
L 143.2841 231.739941 
L 144.390179 231.748971 
L 145.93869 231.751583 
L 147.531443 231.73514 
L 147.752659 231.749796 
L 147.929631 231.730841 
L 148.150847 231.743728 
L 157.441909 231.753242 
L 157.486152 231.530003 
L 157.530396 231.752142 
L 159.742553 231.758683 
L 160.229228 231.730438 
L 160.450444 231.752035 
L 160.804389 231.753453 
L 161.689252 231.756421 
L 161.866225 231.75315 
L 162.883817 231.755571 
L 163.149276 231.757266 
L 164.343841 231.742406 
L 164.653543 231.752357 
L 165.095975 231.758507 
L 165.715379 231.735421 
L 166.069324 231.75258 
L 166.954187 231.739892 
L 167.794807 231.750856 
L 168.237238 231.73941 
L 168.546941 231.756332 
L 168.945129 231.740643 
L 169.254831 231.754839 
L 184.784178 231.757419 
L 184.96115 231.759409 
L 188.943034 231.751493 
L 189.120007 231.753732 
L 189.16425 231.611643 
L 189.208493 231.759714 
L 190.535787 231.756108 
L 190.668517 231.743766 
L 191.597623 231.746203 
L 191.774596 231.758176 
L 192.792188 231.745599 
L 193.367349 231.758156 
L 199.163202 231.762294 
L 199.384418 231.750807 
L 200.136552 231.759937 
L 200.40201 231.753059 
L 203.233572 231.75235 
L 203.410545 231.761875 
L 204.162678 231.745899 
L 204.428137 231.749894 
L 204.870569 231.757992 
L 206.330593 231.75268 
L 206.817268 231.747185 
L 207.259699 231.75563 
L 207.525158 231.75651 
L 210.35672 231.752753 
L 210.799151 231.752619 
L 211.06461 231.753724 
L 211.108853 231.654463 
L 211.153097 231.756759 
L 212.657364 231.761879 
L 213.011309 231.736594 
L 213.276768 231.746661 
L 213.630713 231.753943 
L 214.781035 231.755506 
L 215.577412 231.761512 
L 215.887114 231.750043 
L 216.506518 231.762573 
L 216.993193 231.759915 
L 219.913241 231.727913 
L 220.04597 231.73961 
L 220.222943 231.761912 
L 231.593433 231.723101 
L 231.770406 231.759369 
L 232.478296 231.753091 
L 233.141943 231.753786 
L 234.159536 231.762043 
L 234.513481 231.745507 
L 234.955913 231.762313 
L 236.725639 231.76129 
L 247.12278 231.760192 
L 249.157965 231.756238 
L 249.423424 231.743146 
L 249.688883 231.760841 
L 249.865855 231.754273 
L 250.750718 231.761408 
L 251.281636 231.755013 
L 252.078013 231.757546 
L 254.776845 231.758906 
L 255.617465 231.761507 
L 257.564164 231.748953 
L 258.095082 231.758558 
L 259.245404 231.761933 
L 259.555106 231.753048 
L 260.926643 231.761446 
L 261.192102 231.753379 
L 261.899993 231.758195 
L 262.519397 231.752512 
L 263.094558 231.750292 
L 264.289123 231.748954 
L 264.643068 231.762771 
L 265.0855 231.757006 
L 266.368551 231.760728 
L 266.722496 231.7452 
L 267.032198 231.754491 
L 271.500757 231.753157 
L 271.721973 231.760676 
L 272.739565 231.749699 
L 273.535942 231.760752 
L 275.925072 231.743154 
L 276.234774 231.76144 
L 276.677206 231.757219 
L 277.827528 231.756175 
L 281.455466 231.757475 
L 282.561545 231.759938 
L 309.771084 231.743163 
L 310.036543 231.761614 
L 310.523218 231.760546 
L 328.79564 231.760564 
L 329.901718 231.751069 
L 330.21142 231.75965 
L 330.742338 231.75576 
L 331.273256 231.757173 
L 331.759931 231.760168 
L 333.618143 231.758738 
L 333.618143 231.758738 
" clip-path="url(#p50ab2d2770)" style="fill: none; stroke: #0000ff; stroke-width: 1.5; stroke-linecap: square"/>
   </g>
   <g id="line2d_15">
    <path d="M 57.585114 33.589811 
L 62.009429 219.273679 
L 66.433744 224.117823 
L 70.858059 225.995501 
L 75.282375 227.112229 
L 79.70669 227.30782 
L 84.131005 226.37095 
L 88.555321 227.8881 
L 92.979636 227.744526 
L 97.403951 226.647266 
L 101.828266 227.644727 
L 106.252582 228.150348 
L 110.676897 228.552854 
L 115.101212 228.491822 
L 119.525527 229.011274 
L 123.949843 229.230714 
L 128.374158 228.983546 
L 132.798473 228.980208 
L 137.222788 229.132497 
L 141.647104 229.040382 
L 146.071419 229.03598 
L 150.495734 229.086205 
L 154.92005 229.189267 
L 159.344365 229.033566 
L 163.76868 229.170643 
L 168.192995 229.183817 
L 172.617311 229.116822 
L 177.041626 229.201207 
L 181.465941 229.166197 
L 185.890256 229.230538 
L 190.314572 229.149201 
L 194.738887 229.221823 
L 199.163202 229.138514 
L 203.587517 229.13712 
L 208.011833 229.180619 
L 212.436148 229.210654 
L 216.860463 229.184256 
L 221.284779 229.266653 
L 225.709094 229.250229 
L 230.133409 229.225805 
L 234.557724 229.241137 
L 238.98204 229.254398 
L 243.406355 229.201262 
L 247.83067 229.205934 
L 252.254985 229.2796 
L 256.679301 229.165068 
L 261.103616 229.23216 
L 265.527931 229.211224 
L 269.952247 229.150728 
L 274.376562 229.131053 
L 278.800877 229.182731 
L 283.225192 229.163976 
L 287.649508 229.200899 
L 292.073823 229.279759 
L 296.498138 229.090726 
L 300.922453 229.144967 
L 305.346769 229.200965 
L 309.771084 229.144414 
L 314.195399 229.118752 
L 318.619714 229.169645 
L 323.04403 229.152558 
L 327.468345 229.167804 
L 331.89266 229.182765 
" clip-path="url(#p50ab2d2770)" style="fill: none; stroke: #008000; stroke-width: 1.5; stroke-linecap: square"/>
   </g>
   <g id="line2d_16">
    <path d="M 333.662386 228.875269 
" clip-path="url(#p50ab2d2770)" style="fill: none; stroke: #ff0000; stroke-width: 1.5; stroke-linecap: square"/>
   </g>
   <g id="patch_3">
    <path d="M 43.78125 242.279219 
L 43.78125 10.999219 
" style="fill: none; stroke: #000000; stroke-width: 0.8; stroke-linejoin: miter; stroke-linecap: square"/>
   </g>
   <g id="patch_4">
    <path d="M 347.46625 242.279219 
L 347.46625 10.999219 
" style="fill: none; stroke: #000000; stroke-width: 0.8; stroke-linejoin: miter; stroke-linecap: square"/>
   </g>
   <g id="patch_5">
    <path d="M 43.78125 242.279219 
L 347.46625 242.279219 
" style="fill: none; stroke: #000000; stroke-width: 0.8; stroke-linejoin: miter; stroke-linecap: square"/>
   </g>
   <g id="patch_6">
    <path d="M 43.78125 10.999219 
L 347.46625 10.999219 
" style="fill: none; stroke: #000000; stroke-width: 0.8; stroke-linejoin: miter; stroke-linecap: square"/>
   </g>
   <g id="legend_1">
    <g id="patch_7">
     <path d="M 284.514688 63.033594 
L 340.46625 63.033594 
Q 342.46625 63.033594 342.46625 61.033594 
L 342.46625 17.999219 
Q 342.46625 15.999219 340.46625 15.999219 
L 284.514688 15.999219 
Q 282.514688 15.999219 282.514688 17.999219 
L 282.514688 61.033594 
Q 282.514688 63.033594 284.514688 63.033594 
z
" style="fill: #ffffff; opacity: 0.8; stroke: #cccccc; stroke-linejoin: miter"/>
    </g>
    <g id="line2d_17">
     <path d="M 286.514688 24.097656 
L 296.514688 24.097656 
L 306.514688 24.097656 
" style="fill: none; stroke: #0000ff; stroke-width: 1.5; stroke-linecap: square"/>
    </g>
    <g id="text_16">
     <!-- train -->
     <g transform="translate(314.514688 27.597656) scale(0.1 -0.1)">
      <use xlink:href="#DejaVuSans-74"/>
      <use xlink:href="#DejaVuSans-72" x="39.208984"/>
      <use xlink:href="#DejaVuSans-61" x="80.322266"/>
      <use xlink:href="#DejaVuSans-69" x="141.601562"/>
      <use xlink:href="#DejaVuSans-6e" x="169.384766"/>
     </g>
    </g>
    <g id="line2d_18">
     <path d="M 286.514688 38.775781 
L 296.514688 38.775781 
L 306.514688 38.775781 
" style="fill: none; stroke: #008000; stroke-width: 1.5; stroke-linecap: square"/>
    </g>
    <g id="text_17">
     <!-- valid -->
     <g transform="translate(314.514688 42.275781) scale(0.1 -0.1)">
      <defs>
       <path id="DejaVuSans-76" d="M 191 3500 
L 800 3500 
L 1894 563 
L 2988 3500 
L 3597 3500 
L 2284 0 
L 1503 0 
L 191 3500 
z
" transform="scale(0.015625)"/>
       <path id="DejaVuSans-6c" d="M 603 4863 
L 1178 4863 
L 1178 0 
L 603 0 
L 603 4863 
z
" transform="scale(0.015625)"/>
       <path id="DejaVuSans-64" d="M 2906 2969 
L 2906 4863 
L 3481 4863 
L 3481 0 
L 2906 0 
L 2906 525 
Q 2725 213 2448 61 
Q 2172 -91 1784 -91 
Q 1150 -91 751 415 
Q 353 922 353 1747 
Q 353 2572 751 3078 
Q 1150 3584 1784 3584 
Q 2172 3584 2448 3432 
Q 2725 3281 2906 2969 
z
M 947 1747 
Q 947 1113 1208 752 
Q 1469 391 1925 391 
Q 2381 391 2643 752 
Q 2906 1113 2906 1747 
Q 2906 2381 2643 2742 
Q 2381 3103 1925 3103 
Q 1469 3103 1208 2742 
Q 947 2381 947 1747 
z
" transform="scale(0.015625)"/>
      </defs>
      <use xlink:href="#DejaVuSans-76"/>
      <use xlink:href="#DejaVuSans-61" x="59.179688"/>
      <use xlink:href="#DejaVuSans-6c" x="120.458984"/>
      <use xlink:href="#DejaVuSans-69" x="148.242188"/>
      <use xlink:href="#DejaVuSans-64" x="176.025391"/>
     </g>
    </g>
    <g id="line2d_19">
     <path d="M 286.514688 53.453906 
L 296.514688 53.453906 
L 306.514688 53.453906 
" style="fill: none; stroke: #ff0000; stroke-width: 1.5; stroke-linecap: square"/>
    </g>
    <g id="text_18">
     <!-- test -->
     <g transform="translate(314.514688 56.953906) scale(0.1 -0.1)">
      <use xlink:href="#DejaVuSans-74"/>
      <use xlink:href="#DejaVuSans-65" x="39.208984"/>
      <use xlink:href="#DejaVuSans-73" x="100.732422"/>
      <use xlink:href="#DejaVuSans-74" x="152.832031"/>
     </g>
    </g>
   </g>
  </g>
  <g id="axes_2">
   <g id="patch_8">
    <path d="M 401.57625 242.279219 
L 705.26125 242.279219 
L 705.26125 10.999219 
L 401.57625 10.999219 
z
" style="fill: #ffffff"/>
   </g>
   <g id="PolyCollection_4"/>
   <g id="PolyCollection_5"/>
   <g id="PolyCollection_6"/>
   <g id="matplotlib.axis_3">
    <g id="xtick_8">
     <g id="line2d_20">
      <g>
       <use xlink:href="#m2e3ab8dd8c" x="415.380114" y="242.279219" style="stroke: #000000; stroke-width: 0.8"/>
      </g>
     </g>
     <g id="text_19">
      <!-- 0 -->
      <g transform="translate(412.198864 256.877656) scale(0.1 -0.1)">
       <use xlink:href="#DejaVuSans-30"/>
      </g>
     </g>
    </g>
    <g id="xtick_9">
     <g id="line2d_21">
      <g>
       <use xlink:href="#m2e3ab8dd8c" x="459.623266" y="242.279219" style="stroke: #000000; stroke-width: 0.8"/>
      </g>
     </g>
     <g id="text_20">
      <!-- 1000 -->
      <g transform="translate(446.898266 256.877656) scale(0.1 -0.1)">
       <use xlink:href="#DejaVuSans-31"/>
       <use xlink:href="#DejaVuSans-30" x="63.623047"/>
       <use xlink:href="#DejaVuSans-30" x="127.246094"/>
       <use xlink:href="#DejaVuSans-30" x="190.869141"/>
      </g>
     </g>
    </g>
    <g id="xtick_10">
     <g id="line2d_22">
      <g>
       <use xlink:href="#m2e3ab8dd8c" x="503.866419" y="242.279219" style="stroke: #000000; stroke-width: 0.8"/>
      </g>
     </g>
     <g id="text_21">
      <!-- 2000 -->
      <g transform="translate(491.141419 256.877656) scale(0.1 -0.1)">
       <use xlink:href="#DejaVuSans-32"/>
       <use xlink:href="#DejaVuSans-30" x="63.623047"/>
       <use xlink:href="#DejaVuSans-30" x="127.246094"/>
       <use xlink:href="#DejaVuSans-30" x="190.869141"/>
      </g>
     </g>
    </g>
    <g id="xtick_11">
     <g id="line2d_23">
      <g>
       <use xlink:href="#m2e3ab8dd8c" x="548.109572" y="242.279219" style="stroke: #000000; stroke-width: 0.8"/>
      </g>
     </g>
     <g id="text_22">
      <!-- 3000 -->
      <g transform="translate(535.384572 256.877656) scale(0.1 -0.1)">
       <use xlink:href="#DejaVuSans-33"/>
       <use xlink:href="#DejaVuSans-30" x="63.623047"/>
       <use xlink:href="#DejaVuSans-30" x="127.246094"/>
       <use xlink:href="#DejaVuSans-30" x="190.869141"/>
      </g>
     </g>
    </g>
    <g id="xtick_12">
     <g id="line2d_24">
      <g>
       <use xlink:href="#m2e3ab8dd8c" x="592.352724" y="242.279219" style="stroke: #000000; stroke-width: 0.8"/>
      </g>
     </g>
     <g id="text_23">
      <!-- 4000 -->
      <g transform="translate(579.627724 256.877656) scale(0.1 -0.1)">
       <use xlink:href="#DejaVuSans-34"/>
       <use xlink:href="#DejaVuSans-30" x="63.623047"/>
       <use xlink:href="#DejaVuSans-30" x="127.246094"/>
       <use xlink:href="#DejaVuSans-30" x="190.869141"/>
      </g>
     </g>
    </g>
    <g id="xtick_13">
     <g id="line2d_25">
      <g>
       <use xlink:href="#m2e3ab8dd8c" x="636.595877" y="242.279219" style="stroke: #000000; stroke-width: 0.8"/>
      </g>
     </g>
     <g id="text_24">
      <!-- 5000 -->
      <g transform="translate(623.870877 256.877656) scale(0.1 -0.1)">
       <use xlink:href="#DejaVuSans-35"/>
       <use xlink:href="#DejaVuSans-30" x="63.623047"/>
       <use xlink:href="#DejaVuSans-30" x="127.246094"/>
       <use xlink:href="#DejaVuSans-30" x="190.869141"/>
      </g>
     </g>
    </g>
    <g id="xtick_14">
     <g id="line2d_26">
      <g>
       <use xlink:href="#m2e3ab8dd8c" x="680.83903" y="242.279219" style="stroke: #000000; stroke-width: 0.8"/>
      </g>
     </g>
     <g id="text_25">
      <!-- 6000 -->
      <g transform="translate(668.11403 256.877656) scale(0.1 -0.1)">
       <use xlink:href="#DejaVuSans-36"/>
       <use xlink:href="#DejaVuSans-30" x="63.623047"/>
       <use xlink:href="#DejaVuSans-30" x="127.246094"/>
       <use xlink:href="#DejaVuSans-30" x="190.869141"/>
      </g>
     </g>
    </g>
    <g id="text_26">
     <!-- iterations -->
     <g transform="translate(529.691406 270.555781) scale(0.1 -0.1)">
      <use xlink:href="#DejaVuSans-69"/>
      <use xlink:href="#DejaVuSans-74" x="27.783203"/>
      <use xlink:href="#DejaVuSans-65" x="66.992188"/>
      <use xlink:href="#DejaVuSans-72" x="128.515625"/>
      <use xlink:href="#DejaVuSans-61" x="169.628906"/>
      <use xlink:href="#DejaVuSans-74" x="230.908203"/>
      <use xlink:href="#DejaVuSans-69" x="270.117188"/>
      <use xlink:href="#DejaVuSans-6f" x="297.900391"/>
      <use xlink:href="#DejaVuSans-6e" x="359.082031"/>
      <use xlink:href="#DejaVuSans-73" x="422.460938"/>
     </g>
    </g>
   </g>
   <g id="matplotlib.axis_4">
    <g id="ytick_7">
     <g id="line2d_27">
      <g>
       <use xlink:href="#m68e6cb639f" x="401.57625" y="242.279219" style="stroke: #000000; stroke-width: 0.8"/>
      </g>
     </g>
     <g id="text_27">
      <!-- 0.00 -->
      <g transform="translate(372.310625 246.078438) scale(0.1 -0.1)">
       <use xlink:href="#DejaVuSans-30"/>
       <use xlink:href="#DejaVuSans-2e" x="63.623047"/>
       <use xlink:href="#DejaVuSans-30" x="95.410156"/>
       <use xlink:href="#DejaVuSans-30" x="159.033203"/>
      </g>
     </g>
    </g>
    <g id="ytick_8">
     <g id="line2d_28">
      <g>
       <use xlink:href="#m68e6cb639f" x="401.57625" y="203.732552" style="stroke: #000000; stroke-width: 0.8"/>
      </g>
     </g>
     <g id="text_28">
      <!-- 0.20 -->
      <g transform="translate(372.310625 207.531771) scale(0.1 -0.1)">
       <use xlink:href="#DejaVuSans-30"/>
       <use xlink:href="#DejaVuSans-2e" x="63.623047"/>
       <use xlink:href="#DejaVuSans-32" x="95.410156"/>
       <use xlink:href="#DejaVuSans-30" x="159.033203"/>
      </g>
     </g>
    </g>
    <g id="ytick_9">
     <g id="line2d_29">
      <g>
       <use xlink:href="#m68e6cb639f" x="401.57625" y="165.185885" style="stroke: #000000; stroke-width: 0.8"/>
      </g>
     </g>
     <g id="text_29">
      <!-- 0.40 -->
      <g transform="translate(372.310625 168.985104) scale(0.1 -0.1)">
       <use xlink:href="#DejaVuSans-30"/>
       <use xlink:href="#DejaVuSans-2e" x="63.623047"/>
       <use xlink:href="#DejaVuSans-34" x="95.410156"/>
       <use xlink:href="#DejaVuSans-30" x="159.033203"/>
      </g>
     </g>
    </g>
    <g id="ytick_10">
     <g id="line2d_30">
      <g>
       <use xlink:href="#m68e6cb639f" x="401.57625" y="126.639219" style="stroke: #000000; stroke-width: 0.8"/>
      </g>
     </g>
     <g id="text_30">
      <!-- 0.60 -->
      <g transform="translate(372.310625 130.438437) scale(0.1 -0.1)">
       <use xlink:href="#DejaVuSans-30"/>
       <use xlink:href="#DejaVuSans-2e" x="63.623047"/>
       <use xlink:href="#DejaVuSans-36" x="95.410156"/>
       <use xlink:href="#DejaVuSans-30" x="159.033203"/>
      </g>
     </g>
    </g>
    <g id="ytick_11">
     <g id="line2d_31">
      <g>
       <use xlink:href="#m68e6cb639f" x="401.57625" y="88.092552" style="stroke: #000000; stroke-width: 0.8"/>
      </g>
     </g>
     <g id="text_31">
      <!-- 0.80 -->
      <g transform="translate(372.310625 91.891771) scale(0.1 -0.1)">
       <defs>
        <path id="DejaVuSans-38" d="M 2034 2216 
Q 1584 2216 1326 1975 
Q 1069 1734 1069 1313 
Q 1069 891 1326 650 
Q 1584 409 2034 409 
Q 2484 409 2743 651 
Q 3003 894 3003 1313 
Q 3003 1734 2745 1975 
Q 2488 2216 2034 2216 
z
M 1403 2484 
Q 997 2584 770 2862 
Q 544 3141 544 3541 
Q 544 4100 942 4425 
Q 1341 4750 2034 4750 
Q 2731 4750 3128 4425 
Q 3525 4100 3525 3541 
Q 3525 3141 3298 2862 
Q 3072 2584 2669 2484 
Q 3125 2378 3379 2068 
Q 3634 1759 3634 1313 
Q 3634 634 3220 271 
Q 2806 -91 2034 -91 
Q 1263 -91 848 271 
Q 434 634 434 1313 
Q 434 1759 690 2068 
Q 947 2378 1403 2484 
z
M 1172 3481 
Q 1172 3119 1398 2916 
Q 1625 2713 2034 2713 
Q 2441 2713 2670 2916 
Q 2900 3119 2900 3481 
Q 2900 3844 2670 4047 
Q 2441 4250 2034 4250 
Q 1625 4250 1398 4047 
Q 1172 3844 1172 3481 
z
" transform="scale(0.015625)"/>
       </defs>
       <use xlink:href="#DejaVuSans-30"/>
       <use xlink:href="#DejaVuSans-2e" x="63.623047"/>
       <use xlink:href="#DejaVuSans-38" x="95.410156"/>
       <use xlink:href="#DejaVuSans-30" x="159.033203"/>
      </g>
     </g>
    </g>
    <g id="ytick_12">
     <g id="line2d_32">
      <g>
       <use xlink:href="#m68e6cb639f" x="401.57625" y="49.545885" style="stroke: #000000; stroke-width: 0.8"/>
      </g>
     </g>
     <g id="text_32">
      <!-- 1.00 -->
      <g transform="translate(372.310625 53.345104) scale(0.1 -0.1)">
       <use xlink:href="#DejaVuSans-31"/>
       <use xlink:href="#DejaVuSans-2e" x="63.623047"/>
       <use xlink:href="#DejaVuSans-30" x="95.410156"/>
       <use xlink:href="#DejaVuSans-30" x="159.033203"/>
      </g>
     </g>
    </g>
    <g id="ytick_13">
     <g id="line2d_33">
      <g>
       <use xlink:href="#m68e6cb639f" x="401.57625" y="10.999219" style="stroke: #000000; stroke-width: 0.8"/>
      </g>
     </g>
     <g id="text_33">
      <!-- 1.20 -->
      <g transform="translate(372.310625 14.798437) scale(0.1 -0.1)">
       <use xlink:href="#DejaVuSans-31"/>
       <use xlink:href="#DejaVuSans-2e" x="63.623047"/>
       <use xlink:href="#DejaVuSans-32" x="95.410156"/>
       <use xlink:href="#DejaVuSans-30" x="159.033203"/>
      </g>
     </g>
    </g>
    <g id="ytick_14">
     <g id="line2d_34">
      <g>
       <use xlink:href="#m68e6cb639f" x="401.57625" y="51.51562" style="stroke: #000000; stroke-width: 0.8"/>
      </g>
     </g>
     <g id="text_34">
      <!-- 0.99 -->
      <g transform="translate(372.310625 55.314839) scale(0.1 -0.1)">
       <defs>
        <path id="DejaVuSans-39" d="M 703 97 
L 703 672 
Q 941 559 1184 500 
Q 1428 441 1663 441 
Q 2288 441 2617 861 
Q 2947 1281 2994 2138 
Q 2813 1869 2534 1725 
Q 2256 1581 1919 1581 
Q 1219 1581 811 2004 
Q 403 2428 403 3163 
Q 403 3881 828 4315 
Q 1253 4750 1959 4750 
Q 2769 4750 3195 4129 
Q 3622 3509 3622 2328 
Q 3622 1225 3098 567 
Q 2575 -91 1691 -91 
Q 1453 -91 1209 -44 
Q 966 3 703 97 
z
M 1959 2075 
Q 2384 2075 2632 2365 
Q 2881 2656 2881 3163 
Q 2881 3666 2632 3958 
Q 2384 4250 1959 4250 
Q 1534 4250 1286 3958 
Q 1038 3666 1038 3163 
Q 1038 2656 1286 2365 
Q 1534 2075 1959 2075 
z
" transform="scale(0.015625)"/>
       </defs>
       <use xlink:href="#DejaVuSans-30"/>
       <use xlink:href="#DejaVuSans-2e" x="63.623047"/>
       <use xlink:href="#DejaVuSans-39" x="95.410156"/>
       <use xlink:href="#DejaVuSans-39" x="159.033203"/>
      </g>
     </g>
    </g>
    <g id="text_35">
     <!-- Accuracy -->
     <g transform="translate(366.230938 149.467344) rotate(-90) scale(0.1 -0.1)">
      <defs>
       <path id="DejaVuSans-41" d="M 2188 4044 
L 1331 1722 
L 3047 1722 
L 2188 4044 
z
M 1831 4666 
L 2547 4666 
L 4325 0 
L 3669 0 
L 3244 1197 
L 1141 1197 
L 716 0 
L 50 0 
L 1831 4666 
z
" transform="scale(0.015625)"/>
       <path id="DejaVuSans-63" d="M 3122 3366 
L 3122 2828 
Q 2878 2963 2633 3030 
Q 2388 3097 2138 3097 
Q 1578 3097 1268 2742 
Q 959 2388 959 1747 
Q 959 1106 1268 751 
Q 1578 397 2138 397 
Q 2388 397 2633 464 
Q 2878 531 3122 666 
L 3122 134 
Q 2881 22 2623 -34 
Q 2366 -91 2075 -91 
Q 1284 -91 818 406 
Q 353 903 353 1747 
Q 353 2603 823 3093 
Q 1294 3584 2113 3584 
Q 2378 3584 2631 3529 
Q 2884 3475 3122 3366 
z
" transform="scale(0.015625)"/>
       <path id="DejaVuSans-75" d="M 544 1381 
L 544 3500 
L 1119 3500 
L 1119 1403 
Q 1119 906 1312 657 
Q 1506 409 1894 409 
Q 2359 409 2629 706 
Q 2900 1003 2900 1516 
L 2900 3500 
L 3475 3500 
L 3475 0 
L 2900 0 
L 2900 538 
Q 2691 219 2414 64 
Q 2138 -91 1772 -91 
Q 1169 -91 856 284 
Q 544 659 544 1381 
z
M 1991 3584 
L 1991 3584 
z
" transform="scale(0.015625)"/>
       <path id="DejaVuSans-79" d="M 2059 -325 
Q 1816 -950 1584 -1140 
Q 1353 -1331 966 -1331 
L 506 -1331 
L 506 -850 
L 844 -850 
Q 1081 -850 1212 -737 
Q 1344 -625 1503 -206 
L 1606 56 
L 191 3500 
L 800 3500 
L 1894 763 
L 2988 3500 
L 3597 3500 
L 2059 -325 
z
" transform="scale(0.015625)"/>
      </defs>
      <use xlink:href="#DejaVuSans-41"/>
      <use xlink:href="#DejaVuSans-63" x="66.658203"/>
      <use xlink:href="#DejaVuSans-63" x="121.638672"/>
      <use xlink:href="#DejaVuSans-75" x="176.619141"/>
      <use xlink:href="#DejaVuSans-72" x="239.998047"/>
      <use xlink:href="#DejaVuSans-61" x="281.111328"/>
      <use xlink:href="#DejaVuSans-63" x="342.390625"/>
      <use xlink:href="#DejaVuSans-79" x="397.371094"/>
     </g>
    </g>
   </g>
   <g id="line2d_35">
    <path d="M 415.380114 230.233385 
L 415.557086 106.763594 
L 415.601329 112.78651 
L 415.645573 103.752135 
L 415.778302 76.64901 
L 415.822545 79.660469 
L 415.955275 64.603177 
L 416.043761 79.660469 
L 416.088004 70.626094 
L 416.264977 58.58026 
L 416.30922 58.58026 
L 416.353463 61.591719 
L 416.486192 55.568802 
L 416.574679 67.614635 
L 416.618922 61.591719 
L 416.663165 52.557344 
L 416.707408 58.58026 
L 416.751651 64.603177 
L 416.795895 55.568802 
L 416.840138 61.591719 
L 416.928624 58.58026 
L 417.01711 64.603177 
L 417.061353 61.591719 
L 417.105597 49.545885 
L 417.14984 58.58026 
L 417.194083 64.603177 
L 417.282569 52.557344 
L 417.326812 55.568802 
L 417.459542 70.626094 
L 417.592271 52.557344 
L 417.636514 55.568802 
L 417.680758 64.603177 
L 417.725001 52.557344 
L 417.901973 64.603177 
L 418.078946 49.545885 
L 418.255919 55.568802 
L 418.300162 52.557344 
L 418.344405 55.568802 
L 418.388648 58.58026 
L 418.432891 55.568802 
L 418.477134 49.545885 
L 418.565621 52.557344 
L 418.654107 49.545885 
L 418.69835 58.58026 
L 418.742593 52.557344 
L 418.786836 49.545885 
L 418.963809 58.58026 
L 419.008052 52.557344 
L 419.052295 55.568802 
L 419.096538 61.591719 
L 419.140782 58.58026 
L 419.317754 52.557344 
L 419.406241 49.545885 
L 419.450484 64.603177 
L 419.494727 49.545885 
L 419.53897 58.58026 
L 419.583213 61.591719 
L 419.715943 55.568802 
L 419.760186 64.603177 
L 419.804429 49.545885 
L 419.892915 52.557344 
L 420.025645 64.603177 
L 420.069888 61.591719 
L 420.202617 52.557344 
L 420.24686 52.557344 
L 420.423833 61.591719 
L 420.556563 52.557344 
L 420.600806 61.591719 
L 420.645049 49.545885 
L 420.689292 58.58026 
L 420.777778 52.557344 
L 420.822021 61.591719 
L 420.866265 49.545885 
L 420.954751 55.568802 
L 421.043237 49.545885 
L 421.08748 52.557344 
L 421.22021 49.545885 
L 421.308696 55.568802 
L 421.352939 70.626094 
L 421.397182 49.545885 
L 421.485669 52.557344 
L 421.618398 49.545885 
L 421.662641 55.568802 
L 421.706884 52.557344 
L 421.751128 49.545885 
L 421.795371 52.557344 
L 421.9281 55.568802 
L 421.972343 55.568802 
L 422.016587 52.557344 
L 422.06083 61.591719 
L 422.105073 58.58026 
L 422.149316 49.545885 
L 422.237802 52.557344 
L 422.326289 52.557344 
L 422.370532 55.568802 
L 422.414775 52.557344 
L 422.503261 52.557344 
L 422.547504 49.545885 
L 422.591748 55.568802 
L 422.680234 52.557344 
L 422.812963 49.545885 
L 422.945693 49.545885 
L 423.078422 55.568802 
L 423.122665 49.545885 
L 423.211152 52.557344 
L 423.343881 49.545885 
L 423.388124 52.557344 
L 423.432367 49.545885 
L 423.476611 49.545885 
L 423.565097 55.568802 
L 423.653583 49.545885 
L 423.697826 58.58026 
L 423.786313 55.568802 
L 423.874799 49.545885 
L 423.919042 52.557344 
L 423.963285 55.568802 
L 424.007528 52.557344 
L 424.051772 52.557344 
L 424.096015 55.568802 
L 424.140258 52.557344 
L 424.272987 49.545885 
L 424.31723 49.545885 
L 424.361474 52.557344 
L 424.405717 49.545885 
L 424.494203 49.545885 
L 424.626933 52.557344 
L 424.715419 52.557344 
L 424.848148 55.568802 
L 424.980878 49.545885 
L 425.025121 55.568802 
L 425.069364 52.557344 
L 425.202094 49.545885 
L 425.334823 52.557344 
L 425.379066 49.545885 
L 425.467552 61.591719 
L 425.600282 49.545885 
L 425.644525 49.545885 
L 425.733011 52.557344 
L 425.865741 49.545885 
L 425.954227 49.545885 
L 426.086957 55.568802 
L 426.219686 49.545885 
L 426.308172 49.545885 
L 426.440902 52.557344 
L 426.485145 49.545885 
L 426.529388 52.557344 
L 426.573631 52.557344 
L 426.662118 49.545885 
L 426.750604 52.557344 
L 426.83909 49.545885 
L 426.97182 58.58026 
L 427.060306 49.545885 
L 427.104549 55.568802 
L 427.237279 49.545885 
L 427.325765 52.557344 
L 427.370008 49.545885 
L 427.414251 55.568802 
L 427.458494 52.557344 
L 427.546981 49.545885 
L 427.591224 58.58026 
L 427.635467 52.557344 
L 427.67971 49.545885 
L 427.723953 52.557344 
L 427.768196 55.568802 
L 427.81244 52.557344 
L 427.900926 49.545885 
L 428.077898 58.58026 
L 428.122142 49.545885 
L 428.166385 55.568802 
L 428.210628 55.568802 
L 428.254871 58.58026 
L 428.387601 49.545885 
L 428.476087 52.557344 
L 428.52033 49.545885 
L 428.564573 58.58026 
L 428.608816 49.545885 
L 428.653059 49.545885 
L 428.785789 58.58026 
L 428.918518 49.545885 
L 429.051248 58.58026 
L 429.183977 49.545885 
L 429.22822 52.557344 
L 429.272464 52.557344 
L 429.316707 55.568802 
L 429.449436 49.545885 
L 429.582166 55.568802 
L 429.759138 49.545885 
L 430.113083 49.545885 
L 430.20157 58.58026 
L 430.245813 52.557344 
L 430.378542 49.545885 
L 430.467029 49.545885 
L 430.511272 52.557344 
L 430.555515 49.545885 
L 430.644001 49.545885 
L 430.732488 52.557344 
L 430.865217 49.545885 
L 431.04219 49.545885 
L 431.086433 55.568802 
L 431.130676 49.545885 
L 431.263405 49.545885 
L 431.307649 58.58026 
L 431.351892 49.545885 
L 431.484621 52.557344 
L 431.528864 52.557344 
L 431.661594 49.545885 
L 431.794323 49.545885 
L 431.88281 52.557344 
L 432.015539 49.545885 
L 432.059782 55.568802 
L 432.104025 49.545885 
L 432.148269 49.545885 
L 432.236755 52.557344 
L 432.325241 49.545885 
L 432.413727 52.557344 
L 432.546457 49.545885 
L 432.723429 49.545885 
L 432.767673 52.557344 
L 432.811916 49.545885 
L 432.856159 49.545885 
L 432.900402 52.557344 
L 432.944645 49.545885 
L 433.077375 49.545885 
L 433.165861 52.557344 
L 433.29859 49.545885 
L 433.43132 49.545885 
L 433.475563 52.557344 
L 433.519806 49.545885 
L 433.564049 49.545885 
L 433.608293 55.568802 
L 433.652536 49.545885 
L 433.696779 49.545885 
L 433.785265 52.557344 
L 433.917995 49.545885 
L 433.962238 49.545885 
L 434.006481 55.568802 
L 434.050724 52.557344 
L 434.183454 49.545885 
L 434.360426 49.545885 
L 434.448912 55.568802 
L 434.581642 49.545885 
L 434.670128 52.557344 
L 434.714371 49.545885 
L 434.758615 55.568802 
L 434.802858 49.545885 
L 434.891344 49.545885 
L 435.024073 52.557344 
L 435.156803 49.545885 
L 435.245289 49.545885 
L 435.289532 52.557344 
L 435.333775 49.545885 
L 435.422262 49.545885 
L 435.554991 55.568802 
L 435.687721 49.545885 
L 435.908936 49.545885 
L 436.041666 55.568802 
L 436.174395 49.545885 
L 436.572584 49.545885 
L 436.616827 52.557344 
L 436.66107 49.545885 
L 437.280474 49.545885 
L 437.324717 52.557344 
L 437.368961 49.545885 
L 437.634419 49.545885 
L 437.678663 52.557344 
L 437.722906 49.545885 
L 437.811392 49.545885 
L 437.855635 52.557344 
L 437.899878 49.545885 
L 438.032608 49.545885 
L 438.121094 52.557344 
L 438.253824 49.545885 
L 438.34231 49.545885 
L 438.475039 52.557344 
L 438.563526 49.545885 
L 438.696255 52.557344 
L 438.828985 49.545885 
L 438.917471 52.557344 
L 439.0502 49.545885 
L 439.359902 49.545885 
L 439.448389 52.557344 
L 439.536875 49.545885 
L 439.581118 55.568802 
L 439.625361 52.557344 
L 439.669604 49.545885 
L 439.713848 52.557344 
L 439.802334 52.557344 
L 439.935063 49.545885 
L 440.200522 49.545885 
L 440.289009 52.557344 
L 440.377495 49.545885 
L 440.421738 55.568802 
L 440.465981 49.545885 
L 440.908413 49.545885 
L 440.952656 55.568802 
L 440.996899 49.545885 
L 441.173872 49.545885 
L 441.218115 55.568802 
L 441.306601 52.557344 
L 441.350844 55.568802 
L 441.395087 52.557344 
L 441.439331 49.545885 
L 441.483574 52.557344 
L 441.527817 52.557344 
L 441.616303 49.545885 
L 441.704789 58.58026 
L 441.837519 49.545885 
L 441.926005 49.545885 
L 442.058735 52.557344 
L 442.191464 49.545885 
L 442.324194 49.545885 
L 442.368437 55.568802 
L 442.456923 52.557344 
L 442.545409 49.545885 
L 442.589653 52.557344 
L 442.633896 49.545885 
L 443.032084 49.545885 
L 443.164814 52.557344 
L 443.297543 49.545885 
L 443.341786 52.557344 
L 443.386029 49.545885 
L 443.695731 49.545885 
L 443.739975 52.557344 
L 443.784218 49.545885 
L 444.049677 49.545885 
L 444.182406 55.568802 
L 444.315135 49.545885 
L 444.403622 49.545885 
L 444.447865 52.557344 
L 444.492108 49.545885 
L 444.624838 49.545885 
L 444.713324 52.557344 
L 444.846053 49.545885 
L 444.93454 49.545885 
L 444.978783 52.557344 
L 445.023026 49.545885 
L 445.907889 49.545885 
L 445.952132 52.557344 
L 445.996375 49.545885 
L 446.748509 49.545885 
L 446.881238 52.557344 
L 447.013968 49.545885 
L 447.146697 52.557344 
L 447.279427 49.545885 
L 447.32367 49.545885 
L 447.456399 52.557344 
L 447.589129 49.545885 
L 447.766101 49.545885 
L 447.898831 52.557344 
L 448.03156 49.545885 
L 448.429749 49.545885 
L 448.473992 55.568802 
L 448.518235 49.545885 
L 448.606721 49.545885 
L 448.650964 52.557344 
L 448.695208 49.545885 
L 448.87218 49.545885 
L 448.916423 52.557344 
L 448.960667 49.545885 
L 449.093396 49.545885 
L 449.226125 52.557344 
L 449.358855 49.545885 
L 449.491584 49.545885 
L 449.535828 55.568802 
L 449.580071 49.545885 
L 449.7128 49.545885 
L 449.757043 52.557344 
L 449.801286 49.545885 
L 450.509177 49.545885 
L 450.55342 52.557344 
L 450.597663 49.545885 
L 450.730393 49.545885 
L 450.818879 52.557344 
L 450.951608 49.545885 
L 451.084338 49.545885 
L 451.128581 52.557344 
L 451.172824 49.545885 
L 451.26131 49.545885 
L 451.305554 58.58026 
L 451.349797 49.545885 
L 451.39404 52.557344 
L 451.438283 49.545885 
L 451.703742 49.545885 
L 451.747985 55.568802 
L 451.836471 52.557344 
L 451.924958 55.568802 
L 452.10193 49.545885 
L 452.278903 49.545885 
L 452.323146 58.58026 
L 452.367389 52.557344 
L 452.411632 52.557344 
L 452.455876 55.568802 
L 452.588605 49.545885 
L 452.677091 49.545885 
L 452.809821 52.557344 
L 452.94255 49.545885 
L 453.031037 52.557344 
L 453.163766 49.545885 
L 453.208009 49.545885 
L 453.252252 52.557344 
L 453.296495 49.545885 
L 453.340739 49.545885 
L 453.473468 52.557344 
L 453.517711 52.557344 
L 453.606198 49.545885 
L 453.650441 52.557344 
L 453.694684 49.545885 
L 453.738927 49.545885 
L 453.827413 52.557344 
L 453.960143 49.545885 
L 454.092872 55.568802 
L 454.269845 49.545885 
L 454.402574 49.545885 
L 454.446817 52.557344 
L 454.491061 49.545885 
L 454.668033 49.545885 
L 454.75652 52.557344 
L 454.889249 49.545885 
L 454.933492 49.545885 
L 455.021978 52.557344 
L 455.154708 49.545885 
L 455.774112 49.545885 
L 455.862598 52.557344 
L 455.995328 49.545885 
L 456.1723 49.545885 
L 456.30503 52.557344 
L 456.437759 49.545885 
L 456.614732 49.545885 
L 456.703218 52.557344 
L 456.835948 49.545885 
L 456.968677 49.545885 
L 457.101407 52.557344 
L 457.234136 49.545885 
L 457.278379 52.557344 
L 457.322622 49.545885 
L 457.765054 49.545885 
L 457.809297 52.557344 
L 457.85354 49.545885 
L 457.942027 49.545885 
L 458.030513 52.557344 
L 458.163242 49.545885 
L 458.295972 49.545885 
L 458.340215 52.557344 
L 458.384458 49.545885 
L 458.649917 49.545885 
L 458.69416 52.557344 
L 458.738403 49.545885 
L 458.782646 49.545885 
L 458.82689 52.557344 
L 458.871133 49.545885 
L 458.959619 49.545885 
L 459.003862 52.557344 
L 459.048105 49.545885 
L 459.180835 49.545885 
L 459.225078 52.557344 
L 459.269321 49.545885 
L 459.667509 49.545885 
L 459.755996 52.557344 
L 459.888725 49.545885 
L 460.331157 49.545885 
L 460.3754 55.568802 
L 460.419643 49.545885 
L 460.552373 49.545885 
L 460.596616 52.557344 
L 460.640859 49.545885 
L 461.791181 49.545885 
L 461.835424 52.557344 
L 461.879667 49.545885 
L 462.366342 49.545885 
L 462.410585 52.557344 
L 462.454828 49.545885 
L 463.029989 49.545885 
L 463.074232 52.557344 
L 463.118475 49.545885 
L 463.295448 49.545885 
L 463.339691 52.557344 
L 463.383934 49.545885 
L 463.959095 49.545885 
L 464.003338 52.557344 
L 464.047582 49.545885 
L 465.109417 49.545885 
L 465.15366 52.557344 
L 465.197904 49.545885 
L 465.684578 49.545885 
L 465.728821 52.557344 
L 465.773065 49.545885 
L 468.471897 49.545885 
L 468.560383 52.557344 
L 468.693113 49.545885 
L 468.737356 49.545885 
L 468.781599 52.557344 
L 468.825842 49.545885 
L 468.914328 49.545885 
L 468.958572 52.557344 
L 469.002815 49.545885 
L 469.754948 49.545885 
L 469.799191 52.557344 
L 469.843435 49.545885 
L 470.06465 49.545885 
L 470.108894 52.557344 
L 470.153137 49.545885 
L 470.330109 49.545885 
L 470.374352 52.557344 
L 470.418596 49.545885 
L 473.161671 49.545885 
L 473.205914 52.557344 
L 473.250157 49.545885 
L 691.413143 49.545885 
L 691.413143 49.545885 
" clip-path="url(#p0d5c876757)" style="fill: none; stroke: #0000ff; stroke-width: 1.5; stroke-linecap: square"/>
   </g>
   <g id="line2d_36">
    <path d="M 415.380114 223.391352 
L 419.804429 55.038785 
L 424.228744 53.111452 
L 428.653059 52.725985 
L 433.077375 52.147785 
L 437.50169 52.725985 
L 441.926005 53.304185 
L 446.350321 52.051419 
L 450.774636 51.955052 
L 455.198951 52.822352 
L 459.623266 52.244152 
L 464.047582 51.955052 
L 468.471897 51.376852 
L 472.896212 51.473219 
L 477.320527 51.569585 
L 481.744843 51.376852 
L 486.169158 51.280485 
L 490.593473 51.376852 
L 495.017788 51.280485 
L 499.442104 51.376852 
L 503.866419 51.280485 
L 508.290734 51.376852 
L 512.71505 51.376852 
L 517.139365 51.280485 
L 521.56368 51.280485 
L 525.987995 51.280485 
L 530.412311 51.184119 
L 534.836626 51.280485 
L 539.260941 51.280485 
L 543.685256 51.087752 
L 548.109572 51.087752 
L 552.533887 51.184119 
L 556.958202 51.376852 
L 561.382517 51.184119 
L 565.806833 51.184119 
L 570.231148 51.376852 
L 574.655463 51.376852 
L 579.079779 50.991385 
L 583.504094 51.376852 
L 587.928409 50.991385 
L 592.352724 51.280485 
L 596.77704 51.087752 
L 601.201355 51.184119 
L 605.62567 51.280485 
L 610.049985 50.991385 
L 614.474301 51.184119 
L 618.898616 50.991385 
L 623.322931 51.280485 
L 627.747247 51.376852 
L 632.171562 51.184119 
L 636.595877 51.184119 
L 641.020192 51.184119 
L 645.444508 51.280485 
L 649.868823 51.184119 
L 654.293138 51.087752 
L 658.717453 51.280485 
L 663.141769 51.087752 
L 667.566084 51.280485 
L 671.990399 51.087752 
L 676.414714 50.991385 
L 680.83903 51.184119 
L 685.263345 51.376852 
L 689.68766 51.280485 
" clip-path="url(#p0d5c876757)" style="fill: none; stroke: #008000; stroke-width: 1.5; stroke-linecap: square"/>
   </g>
   <g id="line2d_37">
    <path d="M 691.457386 51.51562 
" clip-path="url(#p0d5c876757)" style="fill: none; stroke: #ff0000; stroke-width: 1.5; stroke-linecap: square"/>
   </g>
   <g id="LineCollection_1">
    <path d="M 415.380114 51.51562 
L 691.457386 51.51562 
" clip-path="url(#p0d5c876757)" style="fill: none; stroke-dasharray: 1.85,0.8; stroke-dashoffset: 0; stroke: #1f77b4; stroke-width: 0.5"/>
   </g>
   <g id="patch_9">
    <path d="M 401.57625 242.279219 
L 401.57625 10.999219 
" style="fill: none; stroke: #000000; stroke-width: 0.8; stroke-linejoin: miter; stroke-linecap: square"/>
   </g>
   <g id="patch_10">
    <path d="M 705.26125 242.279219 
L 705.26125 10.999219 
" style="fill: none; stroke: #000000; stroke-width: 0.8; stroke-linejoin: miter; stroke-linecap: square"/>
   </g>
   <g id="patch_11">
    <path d="M 401.57625 242.279219 
L 705.26125 242.279219 
" style="fill: none; stroke: #000000; stroke-width: 0.8; stroke-linejoin: miter; stroke-linecap: square"/>
   </g>
   <g id="patch_12">
    <path d="M 401.57625 10.999219 
L 705.26125 10.999219 
" style="fill: none; stroke: #000000; stroke-width: 0.8; stroke-linejoin: miter; stroke-linecap: square"/>
   </g>
   <g id="legend_2">
    <g id="patch_13">
     <path d="M 573.883125 237.279219 
L 698.26125 237.279219 
Q 700.26125 237.279219 700.26125 235.279219 
L 700.26125 177.566719 
Q 700.26125 175.566719 698.26125 175.566719 
L 573.883125 175.566719 
Q 571.883125 175.566719 571.883125 177.566719 
L 571.883125 235.279219 
Q 571.883125 237.279219 573.883125 237.279219 
z
" style="fill: #ffffff; opacity: 0.8; stroke: #cccccc; stroke-linejoin: miter"/>
    </g>
    <g id="line2d_38">
     <path d="M 575.883125 183.665156 
L 585.883125 183.665156 
L 595.883125 183.665156 
" style="fill: none; stroke: #0000ff; stroke-width: 1.5; stroke-linecap: square"/>
    </g>
    <g id="text_36">
     <!-- train -->
     <g transform="translate(603.883125 187.165156) scale(0.1 -0.1)">
      <use xlink:href="#DejaVuSans-74"/>
      <use xlink:href="#DejaVuSans-72" x="39.208984"/>
      <use xlink:href="#DejaVuSans-61" x="80.322266"/>
      <use xlink:href="#DejaVuSans-69" x="141.601562"/>
      <use xlink:href="#DejaVuSans-6e" x="169.384766"/>
     </g>
    </g>
    <g id="line2d_39">
     <path d="M 575.883125 198.343281 
L 585.883125 198.343281 
L 595.883125 198.343281 
" style="fill: none; stroke: #008000; stroke-width: 1.5; stroke-linecap: square"/>
    </g>
    <g id="text_37">
     <!-- valid -->
     <g transform="translate(603.883125 201.843281) scale(0.1 -0.1)">
      <use xlink:href="#DejaVuSans-76"/>
      <use xlink:href="#DejaVuSans-61" x="59.179688"/>
      <use xlink:href="#DejaVuSans-6c" x="120.458984"/>
      <use xlink:href="#DejaVuSans-69" x="148.242188"/>
      <use xlink:href="#DejaVuSans-64" x="176.025391"/>
     </g>
    </g>
    <g id="line2d_40">
     <path d="M 575.883125 213.021406 
L 585.883125 213.021406 
L 595.883125 213.021406 
" style="fill: none; stroke: #ff0000; stroke-width: 1.5; stroke-linecap: square"/>
    </g>
    <g id="text_38">
     <!-- test -->
     <g transform="translate(603.883125 216.521406) scale(0.1 -0.1)">
      <use xlink:href="#DejaVuSans-74"/>
      <use xlink:href="#DejaVuSans-65" x="39.208984"/>
      <use xlink:href="#DejaVuSans-73" x="100.732422"/>
      <use xlink:href="#DejaVuSans-74" x="152.832031"/>
     </g>
    </g>
    <g id="line2d_41">
     <path d="M 575.883125 227.699531 
L 595.883125 227.699531 
" style="fill: none; stroke-dasharray: 1.85,0.8; stroke-dashoffset: 0; stroke: #1f77b4; stroke-width: 0.5"/>
    </g>
    <g id="text_39">
     <!-- Max Test Accuracy -->
     <g transform="translate(603.883125 231.199531) scale(0.1 -0.1)">
      <defs>
       <path id="DejaVuSans-4d" d="M 628 4666 
L 1569 4666 
L 2759 1491 
L 3956 4666 
L 4897 4666 
L 4897 0 
L 4281 0 
L 4281 4097 
L 3078 897 
L 2444 897 
L 1241 4097 
L 1241 0 
L 628 0 
L 628 4666 
z
" transform="scale(0.015625)"/>
       <path id="DejaVuSans-78" d="M 3513 3500 
L 2247 1797 
L 3578 0 
L 2900 0 
L 1881 1375 
L 863 0 
L 184 0 
L 1544 1831 
L 300 3500 
L 978 3500 
L 1906 2253 
L 2834 3500 
L 3513 3500 
z
" transform="scale(0.015625)"/>
       <path id="DejaVuSans-20" transform="scale(0.015625)"/>
       <path id="DejaVuSans-54" d="M -19 4666 
L 3928 4666 
L 3928 4134 
L 2272 4134 
L 2272 0 
L 1638 0 
L 1638 4134 
L -19 4134 
L -19 4666 
z
" transform="scale(0.015625)"/>
      </defs>
      <use xlink:href="#DejaVuSans-4d"/>
      <use xlink:href="#DejaVuSans-61" x="86.279297"/>
      <use xlink:href="#DejaVuSans-78" x="147.558594"/>
      <use xlink:href="#DejaVuSans-20" x="206.738281"/>
      <use xlink:href="#DejaVuSans-54" x="238.525391"/>
      <use xlink:href="#DejaVuSans-65" x="282.609375"/>
      <use xlink:href="#DejaVuSans-73" x="344.132812"/>
      <use xlink:href="#DejaVuSans-74" x="396.232422"/>
      <use xlink:href="#DejaVuSans-20" x="435.441406"/>
      <use xlink:href="#DejaVuSans-41" x="467.228516"/>
      <use xlink:href="#DejaVuSans-63" x="533.886719"/>
      <use xlink:href="#DejaVuSans-63" x="588.867188"/>
      <use xlink:href="#DejaVuSans-75" x="643.847656"/>
      <use xlink:href="#DejaVuSans-72" x="707.226562"/>
      <use xlink:href="#DejaVuSans-61" x="748.339844"/>
      <use xlink:href="#DejaVuSans-63" x="809.619141"/>
      <use xlink:href="#DejaVuSans-79" x="864.599609"/>
     </g>
    </g>
   </g>
  </g>
 </g>
 <defs>
  <clipPath id="p50ab2d2770">
   <rect x="43.78125" y="10.999219" width="303.685" height="231.28"/>
  </clipPath>
  <clipPath id="p0d5c876757">
   <rect x="401.57625" y="10.999219" width="303.685" height="231.28"/>
  </clipPath>
 </defs>
</svg>
